<svg width="130" height="130" viewBox="0 0 130 130" fill="none" xmlns="http://www.w3.org/2000/svg">
<path d="M130 64.9669C130 74.9669 121.921 83.0464 111.921 83.0464H83.0463V111.921C83.0463 121.921 74.9669 130 64.9669 130C54.9669 130 46.9536 121.854 46.9536 111.921V64.9669C46.9536 54.9669 55.0331 46.8875 65.0331 46.8875H111.921C121.854 46.9537 130 55.0331 130 64.9669Z" fill="url(#paint0_linear)"/>
<path d="M83.0464 18.0795V65.0331C83.0464 75.0331 74.9669 83.1126 64.9669 83.1126H18.0795C8.07947 83.0464 0 74.9669 0 64.9669C0 54.9669 8.07947 46.8874 18.0795 46.8874H46.9536V18.0795C46.9536 8.07947 55.0331 0 64.9669 0C74.9007 0 83.0464 8.07947 83.0464 18.0795Z" fill="url(#paint1_linear)"/>
<path d="M46.9536 83.0464V88.4768H69.2715C79.8675 88.4768 88.4768 79.8676 88.4768 69.2715V46.9537H83.0463V65.0331C83.0463 75.0331 74.9669 83.1126 64.9669 83.1126H46.9536V83.0464Z" fill="#F1F1F2"/>
<g opacity="0.25">
<path opacity="0.25" d="M18.0795 46.9537C8.07947 46.9537 0 55.0331 0 64.9669C0 71.1921 3.17881 76.6888 7.94702 79.9338C15.5629 68.212 24.1722 57.1524 33.7086 46.9537H18.0795Z" fill="#F1F1F2"/>
<path opacity="0.25" d="M64.9669 0C55.0331 0 46.9536 8.07947 46.9536 18.0795V33.7748C57.2185 24.3046 68.2119 15.6291 79.8675 7.88079C76.6225 3.11258 71.192 0 64.9669 0Z" fill="#F1F1F2"/>
</g>
<defs>
<linearGradient id="paint0_linear" x1="33.4569" y1="119.979" x2="140.238" y2="13.1972" gradientUnits="userSpaceOnUse">
<stop stop-color="#14B0B6"/>
<stop offset="0.8166" stop-color="#86CDD3"/>
</linearGradient>
<linearGradient id="paint1_linear" x1="-3.68576" y1="-3.68576" x2="70.1899" y2="70.1899" gradientUnits="userSpaceOnUse">
<stop stop-color="#FA620C"/>
<stop offset="0.8166" stop-color="#FFA400"/>
</linearGradient>
</defs>
</svg>
