<svg width="172" height="30" viewBox="0 0 172 30" fill="none" xmlns="http://www.w3.org/2000/svg">
<path d="M17.512 23L11.344 6.992H7.072L0.88 23H4.768L5.776 20.288H12.64L13.624 23H17.512ZM11.704 17.288H6.712L9.208 10.4L11.704 17.288ZM21.9663 23V6.992H18.9183V23H21.9663ZM35.8606 23V11.408H32.8126V19.256C32.2846 19.928 31.3486 20.576 30.1726 20.576C28.8766 20.576 28.0366 20.048 28.0366 18.44V11.408H24.9886V19.64C24.9886 21.896 26.1886 23.288 28.7326 23.288C30.6286 23.288 32.0206 22.424 32.8126 21.536V23H35.8606ZM49.759 23V14.816C49.759 12.56 48.535 11.12 45.991 11.12C44.095 11.12 42.679 12.032 41.935 12.92V11.408H38.887V23H41.935V15.2C42.439 14.504 43.375 13.832 44.575 13.832C45.871 13.832 46.711 14.384 46.711 15.992V23H49.759ZM58.1614 23.288C62.0014 23.288 64.3054 20.504 64.3054 17.192C64.3054 13.904 62.0014 11.12 58.1614 11.12C54.3454 11.12 52.0414 13.904 52.0414 17.192C52.0414 20.504 54.3454 23.288 58.1614 23.288ZM58.1614 20.576C56.2654 20.576 55.2094 19.016 55.2094 17.192C55.2094 15.392 56.2654 13.832 58.1614 13.832C60.0574 13.832 61.1374 15.392 61.1374 17.192C61.1374 19.016 60.0574 20.576 58.1614 20.576Z" fill="#233348"/>
<path d="M110.272 23.288C114.592 23.288 116.68 21.08 116.68 18.152C116.68 12.176 107.488 13.88 107.488 11.336C107.488 10.376 108.304 9.728 109.768 9.728C111.4 9.728 113.128 10.28 114.424 11.48L116.32 8.984C114.736 7.52 112.624 6.752 110.08 6.752C106.312 6.752 104.008 8.96 104.008 11.624C104.008 17.648 113.224 15.704 113.224 18.536C113.224 19.448 112.312 20.312 110.44 20.312C108.232 20.312 106.48 19.328 105.352 18.152L103.504 20.744C104.992 22.256 107.2 23.288 110.272 23.288ZM128.911 23V15.512C128.911 12.176 126.487 11.12 123.847 11.12C122.023 11.12 120.199 11.696 118.783 12.944L119.935 14.984C120.919 14.072 122.071 13.616 123.319 13.616C124.855 13.616 125.863 14.384 125.863 15.56V17.12C125.095 16.208 123.727 15.704 122.191 15.704C120.343 15.704 118.159 16.736 118.159 19.448C118.159 22.04 120.343 23.288 122.191 23.288C123.703 23.288 125.071 22.736 125.863 21.8V23H128.911ZM123.415 21.224C122.215 21.224 121.231 20.6 121.231 19.52C121.231 18.392 122.215 17.768 123.415 17.768C124.399 17.768 125.359 18.104 125.863 18.776V20.216C125.359 20.888 124.399 21.224 123.415 21.224ZM141.846 6.2H139.038L135.822 9.656H137.958L141.846 6.2ZM142.806 23V11.408H139.758V19.256C139.23 19.928 138.294 20.576 137.118 20.576C135.822 20.576 134.982 20.048 134.982 18.44V11.408H131.934V19.64C131.934 21.896 133.134 23.288 135.678 23.288C137.574 23.288 138.966 22.424 139.758 21.536V23H142.806ZM156.872 23V6.992H153.8V12.896C152.888 11.72 151.592 11.12 150.224 11.12C147.272 11.12 145.088 13.424 145.088 17.216C145.088 21.08 147.296 23.288 150.224 23.288C151.616 23.288 152.888 22.664 153.8 21.512V23H156.872ZM151.16 20.576C149.432 20.576 148.232 19.208 148.232 17.216C148.232 15.2 149.432 13.832 151.16 13.832C152.192 13.832 153.296 14.384 153.8 15.152V19.256C153.296 20.024 152.192 20.576 151.16 20.576ZM165.343 23.288C167.143 23.288 168.967 22.736 170.119 21.68L168.775 19.712C168.031 20.432 166.663 20.864 165.679 20.864C163.711 20.864 162.535 19.64 162.343 18.176H170.959V17.504C170.959 13.712 168.607 11.12 165.151 11.12C161.623 11.12 159.151 13.832 159.151 17.192C159.151 20.912 161.815 23.288 165.343 23.288ZM168.007 16.112H162.295C162.439 14.96 163.255 13.544 165.151 13.544C167.167 13.544 167.935 15.008 168.007 16.112Z" fill="#233348"/>
<path d="M99 14.9923C99 17.3 97.1355 19.1645 94.8278 19.1645H88.1645V25.8278C88.1645 28.1355 86.3 30 83.9924 30C81.6847 30 79.8354 28.1202 79.8354 25.8278V14.9923C79.8354 12.6846 81.6999 10.8201 84.0076 10.8201H94.8278C97.1202 10.8354 99 12.6999 99 14.9923Z" fill="url(#paint0_linear)"/>
<path d="M88.1645 4.17219V15.0076C88.1645 17.3153 86.3001 19.1798 83.9924 19.1798H73.1722C70.8645 19.1645 69 17.3001 69 14.9924C69 12.6847 70.8645 10.8202 73.1722 10.8202H79.8355V4.17219C79.8355 1.86449 81.7 0 83.9924 0C86.2848 0 88.1645 1.86449 88.1645 4.17219Z" fill="url(#paint1_linear)"/>
<path d="M79.8354 19.1645V20.4177H84.9857C87.431 20.4177 89.4177 18.431 89.4177 15.9857V10.8354H88.1645V15.0076C88.1645 17.3153 86.3 19.1798 83.9924 19.1798H79.8354V19.1645Z" fill="#F1F1F2"/>
<g opacity="0.25">
<path opacity="0.25" d="M73.1722 10.8354C70.8645 10.8354 69 12.6999 69 14.9924C69 16.4289 69.7336 17.6974 70.8339 18.4462C72.5914 15.7412 74.5782 13.189 76.7789 10.8354H73.1722Z" fill="#F1F1F2"/>
<path opacity="0.25" d="M83.9924 0C81.6999 0 79.8354 1.86449 79.8354 4.17219V7.79419C82.2043 5.60876 84.7412 3.60672 87.431 1.81864C86.6821 0.718288 85.4289 0 83.9924 0Z" fill="#F1F1F2"/>
</g>
<defs>
<linearGradient id="paint0_linear" x1="76.7208" y1="27.6873" x2="101.363" y2="3.04544" gradientUnits="userSpaceOnUse">
<stop stop-color="#14B0B6"/>
<stop offset="0.8166" stop-color="#86CDD3"/>
</linearGradient>
<linearGradient id="paint1_linear" x1="68.1494" y1="-0.850561" x2="85.1977" y2="16.1977" gradientUnits="userSpaceOnUse">
<stop stop-color="#FA620C"/>
<stop offset="0.8166" stop-color="#FFA400"/>
</linearGradient>
</defs>
</svg>
