<svg width="70" height="70" viewBox="0 0 70 70" fill="none" xmlns="http://www.w3.org/2000/svg">
<g clip-path="url(#clip0)">
<path d="M65.8981 11.5379C65.6998 11.1631 65.504 10.7871 65.2876 10.4174C64.4905 9.05747 63.5684 7.81212 62.5767 6.63245C65.3224 18.0544 60.5651 30.0482 53.4845 37.8745C39.1854 53.6803 25.6076 59.0468 16.0684 59.9586C13.7941 60.8884 11.4708 61.6315 8.95047 62.2111C8.83714 62.2368 8.73154 62.2445 8.62207 62.2626C9.91121 62.4596 11.4824 62.6103 13.3253 62.6103C22.433 62.6103 37.8679 58.9773 55.3943 39.6028C61.8504 32.4655 66.4892 22.0725 65.8981 11.5379Z" fill="#F9E280"/>
<path d="M4.80069 61.07L4.7041 61.316C4.79039 61.3495 5.06341 61.4512 5.5 61.5826C5.25144 61.4255 5.02091 61.2503 4.80069 61.07Z" fill="#F9E280"/>
<path d="M8.94922 62.2111C9.58413 62.0643 10.2075 61.9084 10.8205 61.741C10.2075 61.9084 9.58413 62.0655 8.94922 62.2111Z" fill="#F9D70B"/>
<path d="M62.346 6.34268L58.3704 0L55.5449 1.86224L58.9229 8.35173C59.2088 9.25323 59.6158 10.2075 59.6209 11.0755C59.7072 24.6521 48.7566 38.7773 32.9959 49.9224C26.5077 54.511 21.5314 57.6946 16.3117 59.862C16.2293 59.8955 16.1469 59.9251 16.0645 59.9586C16.0657 59.9586 16.067 59.9573 16.067 59.9573C25.6062 59.0455 39.184 53.6777 53.483 37.8732C60.5624 30.0482 65.3197 18.057 62.5766 6.63631C62.498 6.5423 62.4272 6.43669 62.346 6.34268Z" fill="#E8C52E"/>
<path d="M12.4072 61.2735C12.4729 61.2529 12.5412 61.2349 12.6068 61.2143C12.5412 61.2349 12.4729 61.2529 12.4072 61.2735Z" fill="#F9D70B"/>
<path d="M65.849 11.449C65.8645 11.4786 65.8812 11.507 65.8967 11.5366C66.4891 22.0712 61.8502 32.4642 55.3929 39.6015C37.8665 58.9773 22.4316 62.6103 13.3239 62.6103C11.481 62.6103 9.90981 62.4596 8.62067 62.2626C8.73014 62.2458 8.83574 62.2381 8.94907 62.2111C7.56077 62.5305 6.42617 62.166 5.50149 61.5826C5.06491 61.4512 4.79188 61.3495 4.7056 61.316L4.80219 61.07C3.65213 60.126 2.89616 58.9953 2.41966 58.9824C1.4924 58.9567 0.874232 60.8859 0.804688 62.2484C11.9485 74.0451 28.7794 71.3613 46.4269 61.0224C65.9533 49.5811 74.4455 27.627 65.849 11.449Z" fill="#F9D70B"/>
<path d="M60.932 10.6531L62.9913 10.1586C63.8967 9.94095 64.2907 8.86945 63.7434 8.11477C63.3158 7.52493 62.8677 6.95313 62.3976 6.40321C62.3641 6.362 62.3319 6.3195 62.3036 6.27443L59.0788 1.13074C58.6899 0.511282 57.8682 0.33227 57.2578 0.735369L56.5276 1.21703C55.9699 1.58406 55.7806 2.31428 56.0884 2.90669L58.8753 8.26159C58.9075 8.3234 58.9333 8.38651 58.9552 8.45348C59.0955 8.88491 59.2552 9.32535 59.384 9.76322C59.5772 10.4239 60.2598 10.8141 60.932 10.6531Z" fill="#B58C30"/>
</g>
<defs>
<clipPath id="clip0">
<rect width="70" height="70" fill="white"/>
</clipPath>
</defs>
</svg>
