<svg width="74" height="74" viewBox="0 0 74 74" fill="none" xmlns="http://www.w3.org/2000/svg">
<path d="M19.2963 45.5803C19.2963 30.6221 31.422 18.4964 46.3803 18.4964C46.7026 18.4964 47.0144 18.5334 47.3328 18.5439C44.5703 8.60345 35.7092 1.32117 25.1821 1.32117C12.446 1.32117 2.12109 11.9685 2.12109 25.1022C2.12109 36.1815 9.47868 45.4641 19.4231 48.1051C19.3465 47.2727 19.2963 46.4325 19.2963 45.5803Z" fill="#6A3311"/>
<path d="M20.9146 49.8675L19.0848 49.3827C8.31858 46.5236 0.799805 36.5383 0.799805 25.1022C0.799805 11.2603 11.7378 0 25.182 0C35.9971 0 45.6297 7.48046 48.6063 18.1912L49.0885 19.9246L47.2917 19.8651C47.1424 19.8611 46.9932 19.8506 46.8452 19.84C46.6893 19.8294 46.536 19.8175 46.3801 19.8175C32.1749 19.8175 20.6173 31.3751 20.6173 45.5803C20.6173 46.3149 20.657 47.0997 20.7389 47.9822L20.9146 49.8675ZM25.182 2.64234C13.1937 2.64234 3.44214 12.7176 3.44214 25.1022C3.44214 34.6979 9.33588 43.1467 17.9856 46.2713C17.979 46.0361 17.975 45.8063 17.975 45.5803C17.975 30.2085 30.25 17.6482 45.5108 17.1884C42.3545 8.54004 34.2293 2.64234 25.182 2.64234Z" fill="#6A3311"/>
<path d="M19.2963 45.5803C19.2963 30.6221 31.422 18.4964 46.3803 18.4964C46.7026 18.4964 47.0144 18.5334 47.3328 18.5439C44.5703 8.60345 35.7092 1.32117 25.1821 1.32117C12.446 1.32117 2.12109 11.9685 2.12109 25.1022C2.12109 36.1815 9.47868 45.4641 19.4231 48.1051C19.3465 47.2727 19.2963 46.4325 19.2963 45.5803Z" fill="#6A3311"/>
<path d="M20.9146 49.8675L19.0848 49.3827C8.31858 46.5236 0.799805 36.5383 0.799805 25.1022C0.799805 11.2603 11.7378 0 25.182 0C35.9971 0 45.6297 7.48046 48.6063 18.1912L49.0885 19.9246L47.2917 19.8651C47.1424 19.8611 46.9932 19.8506 46.8452 19.84C46.6893 19.8294 46.536 19.8175 46.3801 19.8175C32.1749 19.8175 20.6173 31.3751 20.6173 45.5803C20.6173 46.3149 20.657 47.0997 20.7389 47.9822L20.9146 49.8675ZM25.182 2.64234C13.1937 2.64234 3.44214 12.7176 3.44214 25.1022C3.44214 34.6979 9.33588 43.1467 17.9856 46.2713C17.979 46.0361 17.975 45.8063 17.975 45.5803C17.975 30.2085 30.25 17.6482 45.5108 17.1884C42.3545 8.54004 34.2293 2.64234 25.182 2.64234Z" fill="#6A3311"/>
<path d="M21.2703 35.4588C22.0842 33.4414 23.1398 31.5508 24.3923 29.8082C23.8479 27.8608 22.0789 26.4234 19.9571 26.4234C17.4033 26.4234 15.333 28.4936 15.333 31.0475C15.333 33.6013 17.4033 35.6716 19.9571 35.6716C20.4169 35.6716 20.8515 35.5844 21.2703 35.4588Z" fill="#8C572C"/>
<path d="M3.44141 21.1387C3.44141 21.1387 5.75345 23.2037 10.0473 23.781Z" fill="#A46F3E"/>
<path d="M10.0489 25.1022C9.99082 25.1022 9.93004 25.0982 9.87059 25.0903C5.228 24.4654 2.66758 22.2194 2.56056 22.1243C2.01624 21.6381 1.96868 20.8031 2.45487 20.2588C2.93842 19.7145 3.76943 19.6682 4.3164 20.1491C4.37189 20.1967 6.4633 21.9658 10.2233 22.4718C10.946 22.5695 11.4547 23.2341 11.3569 23.9581C11.2671 24.6213 10.7003 25.1022 10.0489 25.1022Z" fill="#A46F3E"/>
<path d="M10.0485 18.4964C10.0485 20.6869 8.27546 22.4599 6.08496 22.4599Z" fill="#A46F3E"/>
<path d="M6.08484 23.781C5.35556 23.781 4.76367 23.1905 4.76367 22.4599C4.76367 21.7293 5.35556 21.1387 6.08484 21.1387C7.54209 21.1387 8.72718 19.9536 8.72718 18.4964C8.72718 17.7658 9.31906 17.1752 10.0483 17.1752C10.7776 17.1752 11.3695 17.7658 11.3695 18.4964C11.3695 21.4109 8.99934 23.781 6.08484 23.781Z" fill="#A46F3E"/>
<path d="M21.2784 17.1752C23.8322 17.1752 25.9025 15.1049 25.9025 12.5511C25.9025 9.99728 23.8322 7.927 21.2784 7.927C18.7246 7.927 16.6543 9.99728 16.6543 12.5511C16.6543 15.1049 18.7246 17.1752 21.2784 17.1752Z" fill="#4C312C"/>
<path d="M37.7923 5.28467C37.7923 5.28467 38.2045 11.2299 33.8288 13.2117C33.8288 13.2117 31.1032 13.7904 31.1864 15.854" fill="#A46F3E"/>
<path d="M31.1852 17.1752C30.4797 17.1752 29.8944 16.6177 29.8654 15.9069C29.7689 13.4905 31.966 12.308 33.3942 11.9566C36.7487 10.3289 36.4765 5.4234 36.4739 5.3732C36.4276 4.64656 36.9772 4.01768 37.7039 3.9688C38.4292 3.91859 39.0594 4.46688 39.1096 5.19352C39.1294 5.47361 39.5271 12.0821 34.3732 14.4153L34.1024 14.5038C34.0931 14.5051 32.4707 14.9107 32.5064 15.7999C32.5355 16.5292 31.9687 17.1448 31.2394 17.1726C31.2209 17.1752 31.2037 17.1752 31.1852 17.1752ZM33.8289 13.2117H33.8421H33.8289Z" fill="#A46F3E"/>
<path d="M36.4712 10.5694C36.4712 10.5694 31.682 8.91791 31.1865 9.2482Z" fill="#A46F3E"/>
<path d="M36.4709 11.8905C36.3282 11.8905 36.1829 11.8667 36.0402 11.8179C34.3174 11.2247 32.1586 10.5892 31.5073 10.5297C30.9815 10.6618 30.4067 10.4571 30.087 9.98012C29.6827 9.37238 29.8466 8.55326 30.453 8.14766C30.9405 7.82265 31.4927 7.45404 36.9016 9.31954C37.5913 9.55735 37.9572 10.3091 37.7194 10.9987C37.5318 11.547 37.0192 11.8905 36.4709 11.8905ZM31.9195 10.3474L31.9182 10.3487C31.9182 10.3487 31.9182 10.3474 31.9195 10.3474Z" fill="#A46F3E"/>
<path d="M69.3472 55.8418C66.302 54.6145 64.8275 51.1517 66.0536 48.1064C66.6402 46.6505 67.746 45.5671 69.0645 44.9528C66.8106 43.5973 65.7986 40.7818 66.8132 38.2637C67.0378 37.7048 67.3629 37.2226 67.7328 36.7879C67.1475 36.7047 66.5635 36.5594 65.9902 36.3295C62.1826 34.7956 60.3395 30.4662 61.8734 26.6599C62.2169 25.8077 62.7057 25.0613 63.291 24.4218C61.8694 23.2869 60.3131 22.2775 58.626 21.4228C45.2848 14.6597 28.9855 19.9919 22.2225 33.3344C15.4594 46.6769 20.7916 62.9748 34.1341 69.7379C47.4766 76.501 63.7746 71.1687 70.5376 57.8262C70.8032 57.3031 71.0159 56.7693 71.2444 56.2382C70.609 56.2038 69.9695 56.0929 69.3472 55.8418Z" fill="#A46F3E"/>
<path d="M46.3513 74C41.9491 74 37.5774 72.9655 33.5372 70.9164C26.7689 67.4853 21.7432 61.6259 19.3836 54.415C17.024 47.2041 17.6145 39.5056 21.0443 32.7386C24.474 25.9715 30.3361 20.9445 37.547 18.5849C44.7579 16.2253 52.4564 16.8132 59.2234 20.2456C60.9541 21.1215 62.599 22.1798 64.1157 23.3887L65.2202 24.2712L64.265 25.3136C63.7603 25.8645 63.3679 26.4842 63.0984 27.1553C61.8406 30.2799 63.3587 33.8457 66.4846 35.1061C66.9285 35.2858 67.3962 35.4087 67.9167 35.4813L70.2908 35.8169L68.7398 37.6454C68.4174 38.0246 68.1875 38.3892 68.0396 38.7591C67.2812 40.6431 67.9999 42.7715 69.7465 43.8232L71.8762 45.1047L69.6223 46.1524C68.5469 46.6531 67.7146 47.5238 67.2799 48.6019C66.8175 49.7473 66.8307 51.0037 67.3143 52.1413C67.7978 53.2761 68.6949 54.156 69.8416 54.6185C70.271 54.7928 70.7533 54.8919 71.3161 54.9223L73.2014 55.0254L72.3202 57.0877C72.1299 57.5356 71.941 57.9848 71.7177 58.4247C68.2853 65.1931 62.4259 70.2201 55.215 72.5797C52.3084 73.527 49.3226 74 46.3513 74ZM46.4068 19.8043C43.7102 19.8043 41.0045 20.2311 38.3688 21.0951C31.829 23.2354 26.5126 27.7948 23.4012 33.9329C20.2899 40.0711 19.7548 47.0534 21.8938 53.5932C24.0328 60.133 28.5921 65.4494 34.7303 68.5608C40.8684 71.6708 47.8495 72.2072 54.3906 70.0669C60.9251 67.9279 66.2375 63.3765 69.3489 57.2449C69.1797 57.1921 69.0133 57.134 68.8508 57.0679C67.05 56.3413 65.6403 54.9593 64.8793 53.1744C64.1197 51.3882 64.0999 49.413 64.8252 47.6123C65.2651 46.525 65.9561 45.5724 66.8386 44.822C65.1343 42.9459 64.594 40.2309 65.5848 37.7709C65.606 37.7194 65.6271 37.6692 65.6496 37.6177C65.5981 37.5978 65.5452 37.578 65.4937 37.5569C61.0176 35.7535 58.8429 30.6445 60.645 26.1684C60.8564 25.6452 61.1166 25.1445 61.4284 24.6702C60.349 23.8947 59.2089 23.2024 58.0264 22.6026C54.3642 20.7437 50.398 19.8043 46.4068 19.8043Z" fill="#A46F3E"/>
<path d="M44.669 38.9692C47.2228 38.9692 49.2931 36.8989 49.2931 34.3451C49.2931 31.7913 47.2228 29.721 44.669 29.721C42.1152 29.721 40.0449 31.7913 40.0449 34.3451C40.0449 36.8989 42.1152 38.9692 44.669 38.9692Z" fill="#6A3311"/>
<path d="M36.3067 55.4666C38.8605 55.4666 40.9308 53.3963 40.9308 50.8425C40.9308 48.2887 38.8605 46.2184 36.3067 46.2184C33.7529 46.2184 31.6826 48.2887 31.6826 50.8425C31.6826 53.3963 33.7529 55.4666 36.3067 55.4666Z" fill="#4C312C"/>
<path d="M53.418 59.697C55.9719 59.697 58.0421 57.6268 58.0421 55.0729C58.0421 52.5191 55.9719 50.4489 53.418 50.4489C50.8642 50.4489 48.7939 52.5191 48.7939 55.0729C48.7939 57.6268 50.8642 59.697 53.418 59.697Z" fill="#8C572C"/>
<path d="M53.0282 73.2311C52.8273 73.2311 52.6239 73.1861 52.4323 73.0884C51.781 72.7594 51.522 71.9627 51.851 71.3127C52.4151 70.2003 51.0292 67.9345 48.3314 66.5658C47.6801 66.2355 47.4211 65.4401 47.7501 64.7901C48.0791 64.1401 48.8744 63.8772 49.5257 64.2101C53.4906 66.2196 55.5463 69.8647 54.2066 72.5071C53.9754 72.9668 53.5104 73.2311 53.0282 73.2311Z" fill="#8C572C"/>
<path d="M53.8699 27.7406C53.669 27.7406 53.4656 27.6957 53.274 27.5979C50.0266 25.9517 48.7226 21.9671 50.3688 18.7183C50.6991 18.0683 51.4931 17.8041 52.1444 18.1383C52.7957 18.4673 53.0547 19.2627 52.7257 19.914C51.7375 21.864 52.5196 24.254 54.4683 25.2423C55.1197 25.5712 55.3786 26.3679 55.0497 27.0179C54.8171 27.4764 54.3521 27.7406 53.8699 27.7406Z" fill="#4C312C"/>
<path d="M29.5752 40.6048C29.3744 40.6048 29.1709 40.5599 28.9794 40.4621C27.6635 39.7949 26.7466 38.6495 26.3331 37.3429C25.9684 37.545 25.58 37.7141 25.1757 37.8475C23.4978 38.3945 21.709 38.2584 20.1341 37.4591C19.4828 37.1288 19.2239 36.3335 19.5528 35.6835C19.8831 35.0335 20.6771 34.7692 21.3285 35.1035C22.2744 35.5831 23.3472 35.6663 24.354 35.336C25.3594 35.007 26.1772 34.3068 26.6554 33.3609C26.9857 32.7108 27.7797 32.4466 28.4311 32.7809C29.0824 33.1098 29.3414 33.9065 29.0124 34.5565C28.3531 35.8552 28.875 37.4486 30.175 38.1078C30.8264 38.4368 31.0853 39.2335 30.7563 39.8835C30.5225 40.3406 30.0574 40.6048 29.5752 40.6048Z" fill="#8C572C"/>
<path d="M30.5694 67.2898C29.6248 67.2898 28.6154 67.0335 27.5704 66.4086C26.9441 66.0333 26.7407 65.2221 27.1159 64.5959C27.4898 63.971 28.301 63.7675 28.9285 64.1401C31.8417 65.8867 34.1458 62.3843 34.2423 62.235C36.4169 58.1526 41.2339 58.6863 41.4387 58.718C42.1627 58.8066 42.6779 59.4658 42.5894 60.1898C42.5009 60.9125 41.8271 61.4304 41.1229 61.3406C40.9723 61.3194 37.8821 61.0155 36.5187 63.5707C35.5146 65.1376 33.3082 67.2898 30.5694 67.2898Z" fill="#8C572C"/>
</svg>
