<svg width="80" height="80" viewBox="0 0 80 80" fill="none" xmlns="http://www.w3.org/2000/svg">
<path d="M63.4483 32.4138H16.5518V15.8621C16.5518 14.3448 17.7931 13.1035 19.3104 13.1035H60.6897C62.2069 13.1035 63.4483 14.3448 63.4483 15.8621V32.4138Z" fill="#FBD490"/>
<path d="M60.69 13.1035H54.5176C54.701 16.9393 57.8431 20 61.7245 20C62.3217 20 62.8927 19.9076 63.4486 19.771V15.8621C63.4486 14.3448 62.2072 13.1035 60.69 13.1035Z" fill="#F9F2E8"/>
<path d="M18.2759 20C22.1573 20 25.2993 16.9393 25.4828 13.1035H19.3104C17.7931 13.1035 16.5518 14.3448 16.5518 15.8621V19.771C17.1076 19.9076 17.6787 20 18.2759 20Z" fill="#F9F2E8"/>
<path d="M39.9656 13.1035H25.5518C25.7352 16.9393 28.8773 20 32.7587 20C36.64 20 39.7821 16.9393 39.9656 13.1035Z" fill="#F9F2E8"/>
<path d="M54.448 13.1035H40.0342C40.2176 16.9393 43.3597 20 47.2411 20C51.1225 20 54.2645 16.9393 54.448 13.1035Z" fill="#F9F2E8"/>
<path d="M19.3104 32.4138H25.4828C25.2993 28.5779 22.1573 25.5172 18.2759 25.5172C17.6787 25.5172 17.1076 25.6097 16.5518 25.7462V29.6552C16.5518 31.1724 17.7931 32.4138 19.3104 32.4138Z" fill="#ED7161"/>
<path d="M61.7245 25.5172C57.8431 25.5172 54.701 28.5779 54.5176 32.4138H60.69C62.2072 32.4138 63.4486 31.1724 63.4486 29.6552V25.7462C62.8927 25.6097 62.3217 25.5172 61.7245 25.5172Z" fill="#ED7161"/>
<path d="M40.0342 32.4138H54.448C54.2645 28.5779 51.1225 25.5172 47.2411 25.5172C43.3597 25.5172 40.2176 28.5779 40.0342 32.4138Z" fill="#ED7161"/>
<path d="M25.5518 32.4138H39.9656C39.7821 28.5779 36.64 25.5172 32.7587 25.5172C28.8773 25.5172 25.7352 28.5779 25.5518 32.4138Z" fill="#ED7161"/>
<path d="M23.448 10.3448C23.0949 10.3448 22.7418 10.2097 22.4728 9.9407C21.9335 9.40138 21.9335 8.52966 22.4728 7.99035L26.6108 3.85242C27.1501 3.31311 28.0218 3.31311 28.5611 3.85242C29.1004 4.39173 29.1004 5.26345 28.5611 5.80276L24.4232 9.9407C24.1542 10.2097 23.8011 10.3448 23.448 10.3448Z" fill="#F9DA49"/>
<path d="M33.1033 10.3448C32.7502 10.3448 32.3971 10.2097 32.1281 9.9407C31.5888 9.40138 31.5888 8.52966 32.1281 7.99035L36.266 3.85242C36.8054 3.31311 37.6771 3.31311 38.2164 3.85242C38.7557 4.39173 38.7557 5.26345 38.2164 5.80276L34.0785 9.9407C33.8095 10.2097 33.4564 10.3448 33.1033 10.3448Z" fill="#F9DA49"/>
<path d="M42.7586 10.3448C42.4055 10.3448 42.0524 10.2097 41.7834 9.9407C41.2441 9.40138 41.2441 8.52966 41.7834 7.99035L45.9213 3.85242C46.4606 3.31311 47.3324 3.31311 47.8717 3.85242C48.411 4.39173 48.411 5.26345 47.8717 5.80276L43.7337 9.9407C43.4648 10.2097 43.1117 10.3448 42.7586 10.3448Z" fill="#F9DA49"/>
<path d="M52.4138 10.3448C52.0607 10.3448 51.7076 10.2097 51.4387 9.9407C50.8994 9.40138 50.8994 8.52966 51.4387 7.99035L55.5766 3.85242C56.1159 3.31311 56.9876 3.31311 57.5269 3.85242C58.0662 4.39173 58.0662 5.26345 57.5269 5.80276L53.389 9.9407C53.12 10.2097 52.7669 10.3448 52.4138 10.3448Z" fill="#F9DA49"/>
<path d="M56.5518 10.3448C56.1987 10.3448 55.8456 10.2097 55.5766 9.9407L51.4387 5.80276C50.8994 5.26345 50.8994 4.39173 51.4387 3.85242C51.978 3.31311 52.8497 3.31311 53.389 3.85242L57.5269 7.99035C58.0662 8.52966 58.0662 9.40138 57.5269 9.9407C57.258 10.2097 56.9049 10.3448 56.5518 10.3448Z" fill="#F9DA49"/>
<path d="M46.8965 10.3448C46.5434 10.3448 46.1903 10.2097 45.9213 9.9407L41.7834 5.80276C41.2441 5.26345 41.2441 4.39173 41.7834 3.85242C42.3227 3.31311 43.1944 3.31311 43.7337 3.85242L47.8717 7.99035C48.411 8.52966 48.411 9.40138 47.8717 9.9407C47.6027 10.2097 47.2496 10.3448 46.8965 10.3448Z" fill="#F9DA49"/>
<path d="M37.2412 10.3448C36.8881 10.3448 36.535 10.2097 36.266 9.9407L32.1281 5.80276C31.5888 5.26345 31.5888 4.39173 32.1281 3.85242C32.6674 3.31311 33.5392 3.31311 34.0785 3.85242L38.2164 7.99035C38.7557 8.52966 38.7557 9.40138 38.2164 9.9407C37.9474 10.2097 37.5943 10.3448 37.2412 10.3448Z" fill="#F9DA49"/>
<path d="M27.5859 10.3448C27.2328 10.3448 26.8797 10.2097 26.6108 9.9407L22.4728 5.80276C21.9335 5.26345 21.9335 4.39173 22.4728 3.85242C23.0122 3.31311 23.8839 3.31311 24.4232 3.85242L28.5611 7.99035C29.1004 8.52966 29.1004 9.40138 28.5611 9.9407C28.2922 10.2097 27.9391 10.3448 27.5859 10.3448Z" fill="#F9DA49"/>
<path d="M68.9652 51.7241H11.0342V35.1724C11.0342 33.6552 12.2756 32.4138 13.7928 32.4138H66.2066C67.7238 32.4138 68.9652 33.6552 68.9652 35.1724V51.7241Z" fill="#F9EA80"/>
<path d="M15.1723 47.5862C14.4095 47.5862 13.793 46.9697 13.793 46.2069V37.931C13.793 37.1683 14.4095 36.5517 15.1723 36.5517C15.935 36.5517 16.5516 37.1683 16.5516 37.931V46.2069C16.5516 46.9697 15.935 47.5862 15.1723 47.5862Z" fill="#EACB49"/>
<path d="M20.6899 47.5862C19.9271 47.5862 19.3105 46.9697 19.3105 46.2069V37.931C19.3105 37.1683 19.9271 36.5517 20.6899 36.5517C21.4526 36.5517 22.0692 37.1683 22.0692 37.931V46.2069C22.0692 46.9697 21.4526 47.5862 20.6899 47.5862Z" fill="#EACB49"/>
<path d="M26.2065 47.5862C25.4437 47.5862 24.8271 46.9697 24.8271 46.2069V37.931C24.8271 37.1683 25.4437 36.5517 26.2065 36.5517C26.9692 36.5517 27.5858 37.1683 27.5858 37.931V46.2069C27.5858 46.9697 26.9692 47.5862 26.2065 47.5862Z" fill="#EACB49"/>
<path d="M31.724 47.5862C30.9613 47.5862 30.3447 46.9697 30.3447 46.2069V37.931C30.3447 37.1683 30.9613 36.5517 31.724 36.5517C32.4868 36.5517 33.1033 37.1683 33.1033 37.931V46.2069C33.1033 46.9697 32.4868 47.5862 31.724 47.5862Z" fill="#EACB49"/>
<path d="M37.2416 47.5862C36.4789 47.5862 35.8623 46.9697 35.8623 46.2069V37.931C35.8623 37.1683 36.4789 36.5517 37.2416 36.5517C38.0044 36.5517 38.6209 37.1683 38.6209 37.931V46.2069C38.6209 46.9697 38.0044 47.5862 37.2416 47.5862Z" fill="#EACB49"/>
<path d="M42.7582 47.5862C41.9955 47.5862 41.3789 46.9697 41.3789 46.2069V37.931C41.3789 37.1683 41.9955 36.5517 42.7582 36.5517C43.521 36.5517 44.1375 37.1683 44.1375 37.931V46.2069C44.1375 46.9697 43.521 47.5862 42.7582 47.5862Z" fill="#EACB49"/>
<path d="M48.2758 47.5862C47.513 47.5862 46.8965 46.9697 46.8965 46.2069V37.931C46.8965 37.1683 47.513 36.5517 48.2758 36.5517C49.0386 36.5517 49.6551 37.1683 49.6551 37.931V46.2069C49.6551 46.9697 49.0386 47.5862 48.2758 47.5862Z" fill="#EACB49"/>
<path d="M53.7934 47.5862C53.0306 47.5862 52.4141 46.9697 52.4141 46.2069V37.931C52.4141 37.1683 53.0306 36.5517 53.7934 36.5517C54.5561 36.5517 55.1727 37.1683 55.1727 37.931V46.2069C55.1727 46.9697 54.5561 47.5862 53.7934 47.5862Z" fill="#EACB49"/>
<path d="M59.31 47.5862C58.5472 47.5862 57.9307 46.9697 57.9307 46.2069V37.931C57.9307 37.1683 58.5472 36.5517 59.31 36.5517C60.0727 36.5517 60.6893 37.1683 60.6893 37.931V46.2069C60.6893 46.9697 60.0727 47.5862 59.31 47.5862Z" fill="#EACB49"/>
<path d="M64.8276 47.5862C64.0648 47.5862 63.4482 46.9697 63.4482 46.2069V37.931C63.4482 37.1683 64.0648 36.5517 64.8276 36.5517C65.5903 36.5517 66.2069 37.1683 66.2069 37.931V46.2069C66.2069 46.9697 65.5903 47.5862 64.8276 47.5862Z" fill="#EACB49"/>
<path d="M74.4821 71.0345H5.5166V54.4828C5.5166 52.9655 6.75798 51.7242 8.27522 51.7242H71.7235C73.2407 51.7242 74.4821 52.9655 74.4821 54.4828V71.0345Z" fill="#A46F3E"/>
<path d="M74.4825 72.4138H5.51701C4.75425 72.4138 4.1377 71.7973 4.1377 71.0345V54.4828C4.1377 52.2014 5.99425 50.3448 8.27563 50.3448H71.7239C74.0053 50.3448 75.8618 52.2014 75.8618 54.4828V71.0345C75.8618 71.7973 75.2453 72.4138 74.4825 72.4138ZM6.89632 69.6552H73.1032V54.4828C73.1032 53.7214 72.4853 53.1035 71.7239 53.1035H8.27563C7.51425 53.1035 6.89632 53.7214 6.89632 54.4828V69.6552Z" fill="#A46F3E"/>
<path d="M14.1377 66.8966C8.62321 66.8966 4.1377 62.411 4.1377 56.8966C4.1377 56.1338 4.75425 55.5172 5.51701 55.5172C6.27976 55.5172 6.89632 56.1338 6.89632 56.8966C6.89632 60.8897 10.1446 64.1379 14.1377 64.1379C18.1308 64.1379 21.3791 60.8897 21.3791 56.8966C21.3791 56.1338 21.9956 55.5172 22.7584 55.5172C23.5211 55.5172 24.1377 56.1338 24.1377 56.8966C24.1377 62.411 19.6522 66.8966 14.1377 66.8966Z" fill="#FBD490"/>
<path d="M31.3789 66.8966C25.8644 66.8966 21.3789 62.411 21.3789 56.8966C21.3789 56.1338 21.9955 55.5172 22.7582 55.5172C23.521 55.5172 24.1375 56.1338 24.1375 56.8966C24.1375 60.8897 27.3858 64.1379 31.3789 64.1379C35.372 64.1379 38.6203 60.8897 38.6203 56.8966C38.6203 56.1338 39.2368 55.5172 39.9996 55.5172C40.7624 55.5172 41.3789 56.1338 41.3789 56.8966C41.3789 62.411 36.8934 66.8966 31.3789 66.8966Z" fill="#FBD490"/>
<path d="M48.6211 66.8966C43.1066 66.8966 38.6211 62.411 38.6211 56.8966C38.6211 56.1338 39.2376 55.5172 40.0004 55.5172C40.7632 55.5172 41.3797 56.1338 41.3797 56.8966C41.3797 60.8897 44.628 64.1379 48.6211 64.1379C52.6142 64.1379 55.8625 60.8897 55.8625 56.8966C55.8625 56.1338 56.479 55.5172 57.2418 55.5172C58.0045 55.5172 58.6211 56.1338 58.6211 56.8966C58.6211 62.411 54.1356 66.8966 48.6211 66.8966Z" fill="#FBD490"/>
<path d="M65.8623 66.8966C60.3478 66.8966 55.8623 62.411 55.8623 56.8966C55.8623 56.1338 56.4789 55.5172 57.2416 55.5172C58.0044 55.5172 58.6209 56.1338 58.6209 56.8966C58.6209 60.8897 61.8692 64.1379 65.8623 64.1379C69.8554 64.1379 73.1037 60.8897 73.1037 56.8966C73.1037 56.1338 73.7202 55.5172 74.483 55.5172C75.2458 55.5172 75.8623 56.1338 75.8623 56.8966C75.8623 62.411 71.3768 66.8966 65.8623 66.8966Z" fill="#FBD490"/>
<path d="M78.6207 72.4138H1.37931C0.616552 72.4138 0 71.7972 0 71.0345C0 70.2717 0.616552 69.6552 1.37931 69.6552H78.6207C79.3834 69.6552 80 70.2717 80 71.0345C80 71.7972 79.3834 72.4138 78.6207 72.4138Z" fill="#E6E6E6"/>
<path d="M73.1038 76.5517H6.89689C6.13413 76.5517 5.51758 75.9352 5.51758 75.1724C5.51758 74.4096 6.13413 73.7931 6.89689 73.7931H73.1038C73.8665 73.7931 74.4831 74.4096 74.4831 75.1724C74.4831 75.9352 73.8665 76.5517 73.1038 76.5517Z" fill="#E6E6E6"/>
</svg>
