<svg width="71" height="71" viewBox="0 0 71 71" fill="none" xmlns="http://www.w3.org/2000/svg">
<path d="M60.0362 60.1744C60.0362 60.1744 56.3654 56.526 54.7586 54.9515C54.345 54.5467 54.3201 53.9027 54.6776 53.4481C62.3232 43.7335 61.5771 29.5696 52.423 20.7332C43.2902 11.9155 28.5309 11.639 19.0954 20.1316C8.59113 29.5858 8.27101 45.7788 18.1363 55.6441C26.2801 63.7879 38.735 64.9874 48.1531 59.2489C48.675 58.9312 49.3401 58.9985 49.7599 59.4432C51.373 61.1435 55.1908 65.0186 55.1908 65.0186C56.5236 66.3514 58.7034 66.3514 60.035 65.0186C61.3678 63.6858 61.3678 61.5059 60.0362 60.1744Z" fill="#F2F2F2"/>
<path d="M55.1574 13.7018C60.5958 13.7018 65.0053 10.6351 65.0053 6.85088C65.0053 3.0667 60.597 0 55.1574 0C52.5828 0 50.241 0.688825 48.4884 1.81486C45.4753 3.75179 42.0636 4.98246 38.4812 4.98246H12.9237C11.982 4.98246 11.2109 5.75349 11.2109 6.69517V7.00658C11.2109 7.94826 11.982 8.7193 12.9237 8.7193H38.4812C42.0636 8.7193 45.4753 9.94996 48.4884 11.8869C50.241 13.0129 52.5828 13.7018 55.1574 13.7018Z" fill="#E6E6E6"/>
<path d="M54.7584 54.9515C56.2569 56.4201 59.5528 59.6936 59.9863 60.1245C65.2826 54.2702 68.5088 46.5075 68.5088 37.9912C68.5088 28.2642 64.2998 19.5213 57.6046 13.48C56.8212 13.6195 56.004 13.7018 55.157 13.7018C52.5823 13.7018 50.2406 13.0129 48.488 11.8869C45.4749 9.94997 42.0631 8.7193 38.4807 8.7193H20.2487C9.69833 14.2274 2.49121 25.2648 2.49121 37.9912C2.49121 56.2208 17.2704 71 35.5 71C42.7445 71 49.4384 68.6607 54.8817 64.7034C53.9475 63.753 51.0976 60.852 49.7598 59.4419C49.3388 58.9985 48.6748 58.93 48.1529 59.2476C38.7348 64.9862 26.2799 63.7879 18.1361 55.6428C8.27086 45.7776 8.59098 29.5846 19.0965 20.1304C28.532 11.6378 43.2913 11.9143 52.4241 20.732C61.5769 29.5684 62.3243 43.7335 54.6787 53.4481C54.32 53.9027 54.3449 54.5467 54.7584 54.9515Z" fill="#D2D5D7"/>
<path d="M35.4369 57.6508C46.0999 57.6508 54.7439 49.0067 54.7439 38.3438C54.7439 27.6808 46.0999 19.0367 35.4369 19.0367C24.7739 19.0367 16.1299 27.6808 16.1299 38.3438C16.1299 49.0067 24.7739 57.6508 35.4369 57.6508Z" fill="#6A3311"/>
<path d="M45.6083 29.4176C45.2894 29.4176 44.9705 29.2956 44.7276 29.0527C43.7262 28.0512 42.5802 27.2229 41.3259 26.5926C40.7105 26.2849 40.4627 25.5351 40.7716 24.921C41.078 24.3069 41.8279 24.0578 42.4432 24.3667C43.9379 25.1165 45.2994 26.1006 46.4902 27.2914C46.9772 27.7784 46.9772 28.5656 46.4902 29.0527C46.246 29.2968 45.9272 29.4176 45.6083 29.4176Z" fill="#A46F3E"/>
<path d="M25.2664 29.4177C24.9476 29.4177 24.6287 29.2956 24.3858 29.0527C23.8987 28.5657 23.8987 27.7784 24.3858 27.2914C27.7477 23.9283 32.3901 22.2878 37.1259 22.8035C37.8098 22.8782 38.3043 23.4923 38.2308 24.1761C38.1548 24.8587 37.5469 25.3495 36.8581 25.281C32.8821 24.8562 28.9746 26.2252 26.1471 29.0527C25.9042 29.2968 25.5853 29.4177 25.2664 29.4177Z" fill="#A46F3E"/>
</svg>
