<svg width="68" height="68" viewBox="0 0 68 68" fill="none" xmlns="http://www.w3.org/2000/svg">
<path d="M10.3236 64.193L1.18457 60.2628V0H10.3236V64.193Z" fill="#B27C4F"/>
<path d="M20.2159 44.7006C20.2159 44.7006 20.2159 44.6102 20.2159 44.5643C20.2159 41.4582 30.6479 38.9402 43.5153 38.9402C44.8621 38.9402 46.1748 38.9743 47.4586 39.0267L50.9656 25.8737V0H10.3643V64.193H30.7724C24.4199 60.0309 20.2159 52.8609 20.2159 44.7006Z" fill="#A46F3E"/>
<path d="M27.3853 30.4301H22.5931C18.7284 30.4301 15.5947 27.2964 15.5947 23.4317V18.6395H20.3869C24.2516 18.6395 27.3853 21.7732 27.3853 25.6379V30.4301Z" fill="#F9EA80"/>
<path d="M32.626 30.4301H37.4182C41.2829 30.4301 44.4165 27.2964 44.4165 23.4317V18.6395H39.6243C35.7596 18.6395 32.626 21.7732 32.626 25.6379V30.4301V30.4301Z" fill="#F9EA80"/>
<path d="M29.9973 24.5348L33.3864 21.1457C36.1192 18.4129 36.1192 13.9823 33.3864 11.2495L29.9973 7.86035L26.6082 11.2495C23.8754 13.9823 23.8754 18.4129 26.6082 21.1457L29.9973 24.5348Z" fill="#F9EA80"/>
<path d="M52.6041 39.3844L57.5168 20.961C57.5168 20.2404 56.9273 19.6509 56.2068 19.6509H53.5867C52.8661 19.6509 52.2766 20.2404 52.2766 20.961L47.4595 39.0267C46.1757 38.973 44.863 38.9402 43.5162 38.9402C30.6475 38.9402 20.2168 41.4582 20.2168 44.5643C20.2168 44.6102 20.2168 44.7006 20.2168 44.7006C20.2168 57.5693 30.6488 68 43.5162 68C56.385 68 66.8157 57.568 66.8157 44.7006C66.8157 44.7006 66.8157 44.6102 66.8157 44.5643C66.8157 42.2364 60.9571 40.2398 52.6041 39.3844Z" fill="#EFE7D0"/>
<path d="M52.6041 39.3844L57.5168 20.961C57.5168 20.2404 56.9273 19.6509 56.2068 19.6509H53.5867C52.8661 19.6509 52.2766 20.2404 52.2766 20.961L47.4595 39.0267C46.1757 38.973 44.863 38.9402 43.5162 38.9402C30.6475 38.9402 20.2168 41.4582 20.2168 44.5643C20.2168 47.6705 30.6488 50.1884 43.5162 50.1884C56.385 50.1884 66.8157 47.6705 66.8157 44.5643C66.8157 42.2364 60.9571 40.2398 52.6041 39.3844Z" fill="#FFF5BB"/>
<path d="M52.6046 39.3843L57.5173 20.961C57.5173 20.2404 56.9278 19.6509 56.2073 19.6509H53.5871C52.8666 19.6509 52.2771 20.2404 52.2771 20.961L47.46 39.0267L46.6006 42.3045L51.6771 43.232L52.6046 39.3843Z" fill="#D2D5D7"/>
<path d="M37.8662 45.8521H35.2461C35.2461 45.129 34.6579 44.5421 33.936 44.5421C33.2142 44.5421 32.626 45.129 32.626 45.8521H30.0059C30.0059 43.6853 31.7692 41.9219 33.936 41.9219C36.1029 41.9219 37.8662 43.6853 37.8662 45.8521Z" fill="#ED8F20"/>
<path d="M48.3467 47.1622H45.7266C45.7266 46.439 45.1383 45.8521 44.4165 45.8521C43.6947 45.8521 43.1064 46.439 43.1064 47.1622H40.4863C40.4863 44.9953 42.2497 43.232 44.4165 43.232C46.5833 43.232 48.3467 44.9953 48.3467 47.1622Z" fill="#ED8F20"/>
</svg>
