<svg width="85" height="85" viewBox="0 0 85 85" fill="none" xmlns="http://www.w3.org/2000/svg">
<path d="M79.1379 72.2294C79.1379 72.2294 66.6253 81.6512 39.569 81.6512C12.5126 81.6512 0 72.3466 0 72.2294H79.1379Z" fill="#D2D5D7"/>
<path d="M65.9479 60.5052C65.139 60.5052 64.4824 59.8501 64.4824 59.0397C64.4824 58.2293 65.139 57.5742 65.9479 57.5742C74.7425 57.5742 81.267 52.1107 81.9997 44.3845H68.879C68.07 44.3845 67.4135 43.7294 67.4135 42.919C67.4135 42.1086 68.07 41.4535 68.879 41.4535H83.5341C84.3431 41.4535 84.9997 42.1086 84.9997 42.919C84.9997 52.9446 76.8089 60.5052 65.9479 60.5052Z" fill="#D2D5D7"/>
<path d="M23.3642 30.7845C22.989 30.7845 22.6138 30.6409 22.3281 30.3551C21.0531 29.0801 20.3496 27.386 20.3496 25.5849C20.3496 23.7837 21.0516 22.0881 22.3281 20.8131C23.0506 20.0936 23.4477 19.1337 23.4477 18.1151C23.4477 17.0966 23.0506 16.1367 22.3281 15.4156C21.755 14.8426 21.755 13.9164 22.3281 13.3434C22.8996 12.7704 23.8273 12.7704 24.4003 13.3434C25.6753 14.6184 26.3787 16.3125 26.3787 18.1151C26.3787 19.9177 25.6768 21.6118 24.4003 22.8868C23.6793 23.6079 23.2806 24.5663 23.2806 25.5863C23.2806 26.6034 23.6778 27.5633 24.4003 28.2843C24.9733 28.8574 24.9733 29.7836 24.4003 30.3566C24.116 30.6424 23.7394 30.7845 23.3642 30.7845Z" fill="#E6E6E6"/>
<path d="M55.6064 30.7845C55.2312 30.7845 54.856 30.6409 54.5702 30.3551C53.2952 29.0801 52.5918 27.386 52.5918 25.5849C52.5918 23.7837 53.2938 22.0881 54.5702 20.8131C55.2927 20.0936 55.6899 19.1337 55.6899 18.1151C55.6899 17.0966 55.2927 16.1367 54.5702 15.4156C53.9972 14.8426 53.9972 13.9164 54.5702 13.3434C55.1418 12.7704 56.0695 12.7704 56.6425 13.3434C57.9175 14.6184 58.6209 16.3125 58.6209 18.1151C58.6209 19.9177 57.919 21.6118 56.6425 22.8868C55.9215 23.6079 55.5228 24.5663 55.5228 25.5863C55.5228 26.6034 55.92 27.5633 56.6425 28.2843C57.2155 28.8574 57.2155 29.7836 56.6425 30.3566C56.3582 30.6424 55.9815 30.7845 55.6064 30.7845Z" fill="#E6E6E6"/>
<path d="M39.3942 26.388C39.019 26.388 38.6439 26.2444 38.3581 25.9586C36.7372 24.3392 35.8447 22.1864 35.8447 19.8958C35.8447 17.6052 36.7372 15.4538 38.3581 13.8315C39.425 12.7631 40.0127 11.3474 40.0127 9.84087C40.0127 8.33432 39.425 6.91717 38.3581 5.84881C37.7851 5.27579 37.7851 4.34958 38.3581 3.77656C38.9311 3.20355 39.8573 3.20355 40.4303 3.77656C42.0512 5.39743 42.9437 7.55027 42.9437 9.84087C42.9437 12.1315 42.0512 14.2829 40.4303 15.9037C39.3634 16.9721 38.7758 18.3878 38.7758 19.8958C38.7758 21.4009 39.3634 22.818 40.4303 23.8864C41.0033 24.4594 41.0033 25.3856 40.4303 25.9586C40.146 26.2459 39.7694 26.388 39.3942 26.388Z" fill="#E6E6E6"/>
<path d="M24.09 72.2294H55.0462C65.4293 65.9863 70.3447 53.4678 70.3447 38.5225H8.79297C8.79297 53.4678 13.7083 65.9863 24.09 72.2294Z" fill="#E6E6E6"/>
<path d="M29.3102 53.1776C28.5013 53.1776 27.8447 52.5225 27.8447 51.7121V37.0569C27.8447 36.2465 28.5013 35.5914 29.3102 35.5914C30.1192 35.5914 30.7758 36.2465 30.7758 37.0569V51.7121C30.7758 52.5211 30.1192 53.1776 29.3102 53.1776Z" fill="#FBD490"/>
<path d="M36.0521 48.7811H22.5693V65.6345H36.0521V48.7811Z" fill="#F9D70B"/>
<path d="M36.0521 59.0397H22.5693V65.6346H36.0521V59.0397Z" fill="#EEAF4B"/>
</svg>
