<svg width="82" height="64" viewBox="0 0 82 64" fill="none" xmlns="http://www.w3.org/2000/svg">
<path d="M73.1147 49.9853C60.5701 62.5299 31.5627 64.8572 24.4423 57.557C17.8625 50.9772 19.4695 21.4292 32.0141 8.88468C44.5586 -3.65986 59.489 -2.57743 72.0336 9.96712C84.5781 22.5117 85.6592 37.4421 73.1147 49.9853Z" fill="#7F532F"/>
<path d="M29.8498 53.4802C29.2414 53.4802 28.6915 53.0595 28.5517 52.4404C23.8824 31.6571 34.7734 15.3114 35.238 14.6257C35.6521 14.0172 36.4776 13.8615 37.0874 14.2729C37.6945 14.6856 37.8529 15.5137 37.4415 16.1222C37.335 16.2806 26.741 32.2309 31.1493 51.8573C31.3104 52.5749 30.859 53.2872 30.1414 53.4483C30.0455 53.4696 29.947 53.4802 29.8498 53.4802Z" fill="#A46F3E"/>
<path d="M55.292 14.5845C56.9818 14.5845 58.3516 13.2147 58.3516 11.5249C58.3516 9.83515 56.9818 8.46533 55.292 8.46533C53.6022 8.46533 52.2324 9.83515 52.2324 11.5249C52.2324 13.2147 53.6022 14.5845 55.292 14.5845Z" fill="#4C312C"/>
<path d="M64.4619 16.2713C66.1517 16.2713 67.5215 14.9015 67.5215 13.2117C67.5215 11.522 66.1517 10.1522 64.4619 10.1522C62.7722 10.1522 61.4023 11.522 61.4023 13.2117C61.4023 14.9015 62.7722 16.2713 64.4619 16.2713Z" fill="#4C312C"/>
<path d="M57.9727 22.7606C59.6624 22.7606 61.0322 21.3908 61.0322 19.7011C61.0322 18.0113 59.6624 16.6415 57.9727 16.6415C56.2829 16.6415 54.9131 18.0113 54.9131 19.7011C54.9131 21.3908 56.2829 22.7606 57.9727 22.7606Z" fill="#4C312C"/>
<path d="M23.5057 62.8525H9.53465C0.0406542 62.8525 0.505654 15.7225 0.505654 15.7225C0.505654 13.2295 32.5347 13.2295 32.5347 15.7225C32.5347 15.7225 33.0407 62.8525 23.5057 62.8525Z" fill="#DAE7EF"/>
<path d="M23.5054 63.3525H9.53435C8.55735 63.3525 7.64235 62.9285 6.81535 62.0925C-0.29865 54.9095 -0.010651 17.3145 0.00534902 15.7175C0.00534902 13.6615 10.3524 13.3525 16.5194 13.3525C22.6863 13.3525 33.0343 13.6615 33.0343 15.7225C33.0513 17.3125 33.3723 54.8765 26.2423 62.0835C25.4103 62.9255 24.4894 63.3525 23.5054 63.3525ZM16.5194 14.3525C6.55135 14.3525 1.43135 15.2085 0.980349 15.8165C1.00135 16.1145 0.703349 54.4995 7.52535 61.3895C8.16735 62.0375 8.82535 62.3525 9.53435 62.3525H23.5054C24.2224 62.3525 24.8844 62.0345 25.5314 61.3805C32.3704 54.4675 32.0383 16.1135 32.0343 15.7275C31.6073 15.2085 26.4883 14.3525 16.5194 14.3525Z" fill="#BBD7EA"/>
<path d="M31.9253 32.1276C31.8943 32.1586 31.8633 32.1896 31.8323 32.2206C29.0983 34.9136 27.2643 34.9006 24.5613 32.1966C21.7753 34.9826 19.4843 35.0036 16.7503 32.2696C13.9643 35.0556 11.6733 35.0766 8.93929 32.3426C6.15329 35.1286 3.86229 34.8616 1.12829 32.1276L0.946289 32.2366C1.71929 45.8226 3.82729 62.8526 9.53429 62.8526H23.5053C29.2263 62.8526 31.3313 45.8906 32.1013 32.3186L31.9253 32.1276Z" fill="#BBD7EA"/>
<path d="M19.7744 41.1276C20.3267 41.1276 20.7744 40.6798 20.7744 40.1276C20.7744 39.5753 20.3267 39.1276 19.7744 39.1276C19.2221 39.1276 18.7744 39.5753 18.7744 40.1276C18.7744 40.6798 19.2221 41.1276 19.7744 41.1276Z" fill="white"/>
<path d="M21.7744 46.1276C22.3267 46.1276 22.7744 45.6798 22.7744 45.1276C22.7744 44.5753 22.3267 44.1276 21.7744 44.1276C21.2221 44.1276 20.7744 44.5753 20.7744 45.1276C20.7744 45.6798 21.2221 46.1276 21.7744 46.1276Z" fill="white"/>
<path d="M24.7744 51.1276C25.3267 51.1276 25.7744 50.6798 25.7744 50.1276C25.7744 49.5753 25.3267 49.1276 24.7744 49.1276C24.2221 49.1276 23.7744 49.5753 23.7744 50.1276C23.7744 50.6798 24.2221 51.1276 24.7744 51.1276Z" fill="white"/>
<path d="M16.7744 48.1276C17.3267 48.1276 17.7744 47.6798 17.7744 47.1276C17.7744 46.5753 17.3267 46.1276 16.7744 46.1276C16.2221 46.1276 15.7744 46.5753 15.7744 47.1276C15.7744 47.6798 16.2221 48.1276 16.7744 48.1276Z" fill="white"/>
<path d="M23.7744 40.1276C24.3267 40.1276 24.7744 39.6798 24.7744 39.1276C24.7744 38.5753 24.3267 38.1276 23.7744 38.1276C23.2221 38.1276 22.7744 38.5753 22.7744 39.1276C22.7744 39.6798 23.2221 40.1276 23.7744 40.1276Z" fill="white"/>
<path d="M13.1424 44.6355L10.9504 46.6835C10.1464 47.4345 8.87435 47.3915 8.12335 46.5875L6.07535 44.3955C5.32435 43.5915 5.36735 42.3195 6.17135 41.5685L8.36335 39.5205C9.16735 38.7695 10.4394 38.8125 11.1904 39.6165L13.2384 41.8085C13.9894 42.6125 13.9454 43.8845 13.1424 44.6355Z" fill="#8AB6CE"/>
<path d="M22.1424 57.8705L19.9504 59.9185C19.1464 60.6695 17.8744 60.6265 17.1234 59.8225L15.0754 57.6305C14.3244 56.8265 14.3674 55.5545 15.1714 54.8035L17.3634 52.7555C18.1674 52.0045 19.4394 52.0475 20.1904 52.8515L22.2384 55.0435C22.9894 55.8475 22.9454 57.1195 22.1424 57.8705Z" fill="#8AB6CE"/>
<path d="M8.77441 54.2195C9.3267 54.2195 9.77441 53.7718 9.77441 53.2195C9.77441 52.6673 9.3267 52.2195 8.77441 52.2195C8.22213 52.2195 7.77441 52.6673 7.77441 53.2195C7.77441 53.7718 8.22213 54.2195 8.77441 54.2195Z" fill="white"/>
<path d="M10.7744 60.2195C11.3267 60.2195 11.7744 59.7718 11.7744 59.2195C11.7744 58.6673 11.3267 58.2195 10.7744 58.2195C10.2221 58.2195 9.77441 58.6673 9.77441 59.2195C9.77441 59.7718 10.2221 60.2195 10.7744 60.2195Z" fill="white"/>
</svg>
