<svg width="72" height="72" viewBox="0 0 72 72" fill="none" xmlns="http://www.w3.org/2000/svg">
<path d="M51.9929 10.0533V9.39067H53.1009C54.8223 9.39067 55.9409 7.98267 55.9409 6.26V3.13067C55.9409 1.40933 54.8223 0 53.1009 0H39.0143H37.5649H34.3703H32.8689H18.7823C17.0609 0 15.9423 1.408 15.9423 3.13067V6.26133C15.9423 7.98267 17.0609 9.392 18.7823 9.392H20.3476V10.0533C20.3476 16.1413 9.3916 12.9133 9.3916 24.14V58.8787C9.3916 66.1253 15.2663 72 22.5129 72H35.9996H49.4863C56.7329 72 62.6076 66.1253 62.6076 58.8787V24.1387C62.6089 12.9133 51.9929 16.1413 51.9929 10.0533Z" fill="#DAE7EF"/>
<path d="M33.8293 26.3587C30.8213 25.3213 27.8413 24.692 24.9666 24.3587C16.6733 23.4 9.39062 29.8667 9.39062 38.216V58.8773C9.39062 66.124 15.2653 71.9987 22.512 71.9987H36H49.4866C56.7333 71.9987 62.608 66.124 62.608 58.8773V43.2467C62.608 35.348 56.0493 29.0733 48.1533 29.3173C41.6053 29.52 36.7813 27.6373 35.1826 26.912C34.74 26.7133 34.2893 26.5173 33.8293 26.3587Z" fill="#F75B57"/>
<path d="M23.9427 42.6667C26.8882 42.6667 29.276 40.2789 29.276 37.3333C29.276 34.3878 26.8882 32 23.9427 32C20.9972 32 18.6094 34.3878 18.6094 37.3333C18.6094 40.2789 20.9972 42.6667 23.9427 42.6667Z" fill="#D13834"/>
<path d="M50.6094 45.3333C52.8185 45.3333 54.6094 43.5425 54.6094 41.3333C54.6094 39.1242 52.8185 37.3333 50.6094 37.3333C48.4002 37.3333 46.6094 39.1242 46.6094 41.3333C46.6094 43.5425 48.4002 45.3333 50.6094 45.3333Z" fill="#D75A4A"/>
<path d="M35.943 52C37.4158 52 38.6097 50.8061 38.6097 49.3333C38.6097 47.8606 37.4158 46.6667 35.943 46.6667C34.4703 46.6667 33.2764 47.8606 33.2764 49.3333C33.2764 50.8061 34.4703 52 35.943 52Z" fill="#ED3F32"/>
<path d="M23.9424 65.3333C26.1515 65.3333 27.9424 63.5425 27.9424 61.3333C27.9424 59.1242 26.1515 57.3333 23.9424 57.3333C21.7332 57.3333 19.9424 59.1242 19.9424 61.3333C19.9424 63.5425 21.7332 65.3333 23.9424 65.3333Z" fill="#F96C7E"/>
<path d="M50.609 62.6667C52.0818 62.6667 53.2757 61.4728 53.2757 60C53.2757 58.5273 52.0818 57.3333 50.609 57.3333C49.1363 57.3333 47.9424 58.5273 47.9424 60C47.9424 61.4728 49.1363 62.6667 50.609 62.6667Z" fill="#D13834"/>
<path d="M38.961 39.5107C38.761 39.5107 38.557 39.4653 38.3663 39.3707L34.993 37.6827C34.3343 37.3533 34.0677 36.552 34.397 35.8933C34.7263 35.2347 35.5277 34.9693 36.1863 35.2973L39.5597 36.9853C40.2183 37.3147 40.485 38.116 40.1557 38.7747C39.921 39.2413 39.449 39.5107 38.961 39.5107Z" fill="#E22F37"/>
<path d="M47.9427 53.3333C47.6014 53.3333 47.2601 53.2027 47.0001 52.9427L44.3334 50.276C43.812 49.7547 43.812 48.912 44.3334 48.3907C44.8547 47.8693 45.6974 47.8693 46.2187 48.3907L48.8854 51.0573C49.4067 51.5787 49.4067 52.4213 48.8854 52.9427C48.6241 53.2027 48.2827 53.3333 47.9427 53.3333Z" fill="#F96C7E"/>
<path d="M35.4867 64.596C34.928 64.596 34.408 64.2427 34.2214 63.684C33.988 62.9853 34.3654 62.2293 35.064 61.9973L38.6427 60.804C39.3427 60.5693 40.096 60.948 40.3294 61.6467C40.5627 62.3453 40.1854 63.1013 39.4867 63.3333L35.908 64.5267C35.768 64.5747 35.6254 64.596 35.4867 64.596Z" fill="#ED3F32"/>
<path d="M18.6091 52C18.2677 52 17.9264 51.8693 17.6664 51.6093C17.1451 51.088 17.1451 50.2453 17.6664 49.724L20.3331 47.0573C20.8544 46.536 21.6971 46.536 22.2184 47.0573C22.7397 47.5787 22.7397 48.4213 22.2184 48.9427L19.5517 51.6093C19.2904 51.8693 18.9491 52 18.6091 52Z" fill="#ED3F32"/>
<path d="M55.9412 26.6667C55.3198 26.6667 54.7638 26.2307 54.6358 25.5973C53.1558 18.2707 43.7345 15.9867 43.6385 15.964C42.9212 15.796 42.4758 15.0787 42.6438 14.3627C42.8118 13.6453 43.5292 13.2053 44.2452 13.368C44.7012 13.4747 55.4332 16.0827 57.2478 25.068C57.3932 25.7907 56.9265 26.4933 56.2052 26.64C56.1172 26.6587 56.0278 26.6667 55.9412 26.6667Z" fill="white"/>
<path d="M34.3704 0H39.0144H53.101C54.8224 0 55.9411 1.40933 55.9411 3.13067V6.26133C55.9411 7.98267 54.8224 9.392 53.101 9.392H39.0144H34.3184H37.5131H32.8691H18.7824C17.061 9.392 15.9424 7.98267 15.9424 6.26133V3.13067C15.9424 1.40933 17.061 0 18.7824 0H32.8691H37.565" fill="#E6E6E6"/>
<path d="M47.954 9.39067H50.5967C50.598 9.37067 50.61 9.35333 50.61 9.33333V0H47.9434V9.33333C47.9434 9.35333 47.954 9.37067 47.954 9.39067Z" fill="#D2D5D7"/>
<path d="M42.62 9.39067H45.2627C45.264 9.37067 45.276 9.35333 45.276 9.33333V0H42.6094V9.33333C42.6094 9.35333 42.62 9.37067 42.62 9.39067Z" fill="#D2D5D7"/>
<path d="M37.287 9.39067H37.5137H39.015H39.931C39.931 9.37067 39.943 9.35333 39.943 9.33333V0H39.015H37.5657H37.2764V9.33333C37.2764 9.35333 37.287 9.37067 37.287 9.39067Z" fill="#D2D5D7"/>
<path d="M31.9534 9.39067H32.8694H34.3187H34.5974C34.5974 9.37067 34.6094 9.35333 34.6094 9.33333V0H34.3707H32.8694H31.9414V9.33333C31.9427 9.35333 31.9534 9.37067 31.9534 9.39067Z" fill="#D2D5D7"/>
<path d="M26.62 9.39067H29.2627C29.264 9.37067 29.276 9.35333 29.276 9.33333V0H26.6094V9.33333C26.6094 9.35333 26.62 9.37067 26.62 9.39067Z" fill="#D2D5D7"/>
<path d="M21.287 9.39067H23.9297C23.931 9.37067 23.943 9.35333 23.943 9.33333V0H21.2764V9.33333C21.2764 9.35333 21.287 9.37067 21.287 9.39067Z" fill="#D2D5D7"/>
</svg>
