<svg width="90" height="90" viewBox="0 0 90 90" fill="none" xmlns="http://www.w3.org/2000/svg">
<path d="M41.0525 90L18.9473 80.5263V28.4211L41.0525 36.3158V90Z" fill="#C6C6C6"/>
<path d="M71.0527 82.1053L41.0527 90V36.3158L71.0527 28.4211V82.1053Z" fill="#E6E6E6"/>
<path d="M60 6.31579L30 12.6316V6.31579L60 0V6.31579Z" fill="#E2E2E2"/>
<path d="M41.0525 36.3158L18.9473 28.4211L29.9999 12.6316L41.0525 36.3158Z" fill="#D1D1D1"/>
<path d="M71.0526 28.4211L41.0526 36.3158L30 12.6316L60 6.3158L71.0526 28.4211Z" fill="#EAEAEA"/>
<path d="M71.0527 58.4211L41.0527 82.1053V58.4211L71.0527 33.1579V58.4211Z" fill="#3DABEF"/>
<path d="M18.9473 72.6316L41.0525 82.1053V58.4211L18.9473 48.9474V72.6316Z" fill="#2B9DD6"/>
<path d="M54.0237 26.6447C50.5232 27.5605 49.3563 24.3979 48.8053 22.2979C48.2558 20.1979 47.7253 16.8679 51.2258 15.9521C54.7263 15.0363 55.8932 18.1989 56.4426 20.2989C56.9921 22.3989 57.5242 25.7289 54.0237 26.6447Z" fill="white"/>
<path d="M53.6846 7.64526L56.8425 6.98052V0.664734L53.6846 1.32947V7.64526Z" fill="#EDEDED"/>
<path d="M47.3682 8.97467L50.5261 8.30993V1.99414L47.3682 2.65888V8.97467Z" fill="#EDEDED"/>
<path d="M41.0527 10.3042L44.2106 9.63946V3.32367L41.0527 3.98841V10.3042Z" fill="#EDEDED"/>
<path d="M34.7373 11.6337L37.8952 10.969V4.6532L34.7373 5.31794V11.6337Z" fill="#EDEDED"/>
</svg>
