<svg width="63" height="63" viewBox="0 0 63 63" fill="none" xmlns="http://www.w3.org/2000/svg">
<g clip-path="url(#clip0)">
<path d="M34.9975 18.023C32.7019 18.5911 30.2986 18.5911 28.003 18.023C16.0462 15.0661 6.03479 16.1999 6.15041 38.7473C6.20932 50.2973 17.0256 65.2733 28.3932 62.711C30.432 62.2519 32.5674 62.2519 34.6062 62.711C45.9738 65.2733 56.7901 50.2973 56.849 38.7473C56.9646 16.2011 46.9543 15.0661 34.9975 18.023Z" fill="#D13834"/>
<path d="M11.7083 32.9868C11.0936 32.9868 10.5967 32.4888 10.5967 31.8752C10.5967 25.7456 15.0844 20.7588 20.6014 20.7588C21.2162 20.7588 21.7131 21.2568 21.7131 21.8704C21.7131 22.484 21.2162 22.9821 20.6014 22.9821C16.3116 22.9821 12.82 26.9717 12.82 31.8752C12.82 32.4888 12.3219 32.9868 11.7083 32.9868Z" fill="#F75B57"/>
<path d="M31.4201 22.2317C30.8232 22.2317 30.3296 21.757 30.3107 21.1556C30.1607 16.4512 28.3531 10.545 23.7276 8.07829C23.1862 7.78926 22.9806 7.11672 23.2696 6.57424C23.5597 6.03287 24.2301 5.82722 24.7748 6.11624C30.2374 9.02874 32.3639 15.7575 32.5329 21.0845C32.5529 21.6981 32.0716 22.2117 31.4568 22.2306C31.4435 22.2317 31.4324 22.2317 31.4201 22.2317Z" fill="#4C312C"/>
<path d="M31.3216 26.2258C29.4541 26.2258 27.6966 25.4977 26.3748 24.1748C25.9402 23.7413 25.9402 23.0376 26.3748 22.603C26.8095 22.1683 27.512 22.1683 27.9467 22.603C28.8493 23.5056 30.0488 24.0025 31.3216 24.0025C32.5944 24.0025 33.7939 23.5056 34.6954 22.603C35.1301 22.1683 35.8327 22.1683 36.2673 22.603C36.702 23.0365 36.702 23.7402 36.2673 24.1748C34.9456 25.4977 33.1892 26.2258 31.3216 26.2258Z" fill="#994530"/>
<path d="M30.3525 14.4958L31.0295 9.95363C31.7443 5.1569 35.5105 1.39066 40.3073 0.675877L44.8483 0L44.1713 4.54216C43.4566 9.33889 39.6903 13.1051 34.8936 13.8199L30.3525 14.4958Z" fill="#659C35"/>
</g>
<defs>
<clipPath id="clip0">
<rect width="63" height="63" fill="white"/>
</clipPath>
</defs>
</svg>
