<svg width="80" height="80" viewBox="0 0 80 80" fill="none" xmlns="http://www.w3.org/2000/svg">
<g clip-path="url(#clip0)">
<path d="M30.6427 38.4182L32.3117 43.9815C32.5352 45.3853 31.5957 46.7448 30.2448 47.1869L28.8705 47.6364L28.4763 48.8571C27.9593 50.4598 26.7999 51.7002 25.1936 52.2013C23.7763 52.6434 20.6901 49.4589 19.43 49.6309L8 61.0609C22.4438 74.5873 45.1172 74.311 59.2135 60.2147C73.3098 46.1185 73.5861 23.4438 60.0609 9L30.6427 38.4182Z" fill="#88C057"/>
<path d="M53.547 15.5127L30.6427 38.417L32.3117 43.9803C32.5352 45.384 31.5957 46.7436 30.2448 47.1857L28.8706 47.6352L28.4763 48.8559C27.9593 50.4586 26.8 51.699 25.1936 52.2001C23.7763 52.6422 20.6901 49.4577 19.4301 49.6296L14.5127 54.547C14.5127 54.5495 14.5127 54.5507 14.5127 54.5531C25.2882 66.2902 42.058 65.2119 53.1344 54.1343C64.2107 43.0568 65.2902 26.2881 53.5531 15.5127C53.5519 15.5127 53.5495 15.5127 53.547 15.5127Z" fill="#E22F37"/>
<path d="M13.5267 31.7004C14.5441 31.7004 15.3689 30.8757 15.3689 29.8583C15.3689 28.8408 14.5441 28.0161 13.5267 28.0161C12.5093 28.0161 11.6846 28.8408 11.6846 29.8583C11.6846 30.8757 12.5093 31.7004 13.5267 31.7004Z" fill="#231F20"/>
<path d="M28.264 58.7189C29.2814 58.7189 30.1062 57.8941 30.1062 56.8767C30.1062 55.8593 29.2814 55.0345 28.264 55.0345C27.2466 55.0345 26.4219 55.8593 26.4219 56.8767C26.4219 57.8941 27.2466 58.7189 28.264 58.7189Z" fill="#231F20"/>
<path d="M39.892 42.3002C40.9094 42.3002 41.7341 41.4755 41.7341 40.4581C41.7341 39.4407 40.9094 38.6159 39.892 38.6159C38.8746 38.6159 38.0498 39.4407 38.0498 40.4581C38.0498 41.4755 38.8746 42.3002 39.892 42.3002Z" fill="#231F20"/>
<path d="M45.9711 36.2211C46.9885 36.2211 47.8132 35.3963 47.8132 34.3789C47.8132 33.3615 46.9885 32.5368 45.9711 32.5368C44.9537 32.5368 44.1289 33.3615 44.1289 34.3789C44.1289 35.3963 44.9537 36.2211 45.9711 36.2211Z" fill="#231F20"/>
<path d="M42.4974 57.0634C43.5148 57.0634 44.3396 56.2386 44.3396 55.2212C44.3396 54.2038 43.5148 53.3791 42.4974 53.3791C41.48 53.3791 40.6553 54.2038 40.6553 55.2212C40.6553 56.2386 41.48 57.0634 42.4974 57.0634Z" fill="#231F20"/>
<path d="M48.5756 50.9842C49.593 50.9842 50.4177 50.1595 50.4177 49.1421C50.4177 48.1247 49.593 47.2999 48.5756 47.2999C47.5582 47.2999 46.7334 48.1247 46.7334 49.1421C46.7334 50.1595 47.5582 50.9842 48.5756 50.9842Z" fill="#231F20"/>
<path d="M54.6547 44.9051C55.6721 44.9051 56.4968 44.0803 56.4968 43.0629C56.4968 42.0455 55.6721 41.2207 54.6547 41.2207C53.6373 41.2207 52.8125 42.0455 52.8125 43.0629C52.8125 44.0803 53.6373 44.9051 54.6547 44.9051Z" fill="#231F20"/>
<path d="M52.0502 30.1419C53.0676 30.1419 53.8923 29.3172 53.8923 28.2998C53.8923 27.2824 53.0676 26.4576 52.0502 26.4576C51.0328 26.4576 50.208 27.2824 50.208 28.2998C50.208 29.3172 51.0328 30.1419 52.0502 30.1419Z" fill="#231F20"/>
<path d="M35.5502 55.3256C36.5676 55.3256 37.3923 54.5008 37.3923 53.4834C37.3923 52.466 36.5676 51.6413 35.5502 51.6413C34.5328 51.6413 33.708 52.466 33.708 53.4834C33.708 54.5008 34.5328 55.3256 35.5502 55.3256Z" fill="#231F20"/>
<path d="M41.7728 48.894C42.7902 48.894 43.615 48.0692 43.615 47.0518C43.615 46.0344 42.7902 45.2096 41.7728 45.2096C40.7554 45.2096 39.9307 46.0344 39.9307 47.0518C39.9307 48.0692 40.7554 48.894 41.7728 48.894Z" fill="#231F20"/>
<path d="M47.9135 42.7534C48.9309 42.7534 49.7556 41.9287 49.7556 40.9113C49.7556 39.8939 48.9309 39.0691 47.9135 39.0691C46.8961 39.0691 46.0713 39.8939 46.0713 40.9113C46.0713 41.9287 46.8961 42.7534 47.9135 42.7534Z" fill="#231F20"/>
<path d="M17.2113 43.9815C18.2287 43.9815 19.0535 43.1568 19.0535 42.1394C19.0535 41.122 18.2287 40.2972 17.2113 40.2972C16.1939 40.2972 15.3691 41.122 15.3691 42.1394C15.3691 43.1568 16.1939 43.9815 17.2113 43.9815Z" fill="#231F20"/>
<path d="M24.5795 34.1566C25.5969 34.1566 26.4216 33.3319 26.4216 32.3145C26.4216 31.2971 25.5969 30.4723 24.5795 30.4723C23.5621 30.4723 22.7373 31.2971 22.7373 32.3145C22.7373 33.3319 23.5621 34.1566 24.5795 34.1566Z" fill="#231F20"/>
<path d="M53.7865 37.0894C54.8039 37.0894 55.6287 36.2646 55.6287 35.2472C55.6287 34.2298 54.8039 33.405 53.7865 33.405C52.7691 33.405 51.9443 34.2298 51.9443 35.2472C51.9443 36.2646 52.7691 37.0894 53.7865 37.0894Z" fill="#231F20"/>
</g>
<defs>
<clipPath id="clip0">
<rect width="62" height="62" fill="white" transform="translate(8 9)"/>
</clipPath>
</defs>
</svg>
