<svg width="72" height="72" viewBox="0 0 72 72" fill="none" xmlns="http://www.w3.org/2000/svg">
<g clip-path="url(#clip0)">
<path d="M37.2171 11.0207L33.4569 11.807L29.7852 0.863421L36.1887 -1L37.2171 11.0207Z" fill="#659C35"/>
<path d="M45.2883 9.84114C46.6663 8.58733 47.7127 7.07354 48.2455 5.28952C41.2567 2.68842 39.0808 6.06051 39.0808 6.06051C38.9796 4.69144 37.9435 4.11128 36.6154 3.97552L37.2186 11.0194L33.4572 11.807L33.4559 11.8045L31.207 5.10126C30.5359 5.43937 30.0838 5.79028 30.0633 6.06051C30.0633 6.06051 27.8861 2.68842 20.8986 5.28952C21.4481 7.12349 22.52 8.68851 23.9582 9.96024C18.3398 10.7556 13.176 12.6894 10.5762 17.4447C23.7379 21.3828 27.6556 15.0344 27.6556 15.0344C28.4535 23.6612 35.1362 26.2085 36.1467 26.5607C37.1571 26.2085 43.8398 23.6612 44.6377 15.0344C44.6377 15.0344 46.0811 21.3828 59.2441 17.4447C56.3433 12.6561 50.9234 10.6313 45.2883 9.84114Z" fill="#88C057"/>
<path d="M57.0487 18.1119C57.0295 18.0889 57.0142 18.0633 56.9949 18.0402C45.9207 20.6311 44.6362 15.0344 44.6362 15.0344C43.8383 23.6612 37.1556 26.2085 36.1451 26.5607C35.1346 26.2085 28.4519 23.6612 27.6541 15.0344C27.6541 15.0344 24.3819 20.234 13.9173 18.2374C13.8942 18.2592 13.8712 18.2823 13.8468 18.304C13.8776 18.3091 13.9109 18.3181 13.9403 18.3232C10.8333 21.4481 9.19531 26.2994 9.19531 33.6456C9.19659 50.0667 25.6997 72 35.4996 72C45.2996 72 61.8027 50.0667 61.8027 33.6443C61.8027 26.1611 60.1019 21.2676 56.8822 18.1491C56.936 18.1388 56.9949 18.1234 57.0487 18.1119Z" fill="#E22F37"/>
<path d="M21.1495 25.4747C20.9932 24.9739 20.285 24.9739 20.13 25.4747C20.13 25.4747 18.1885 32.2547 18.1885 32.9091C18.1885 33.5636 18.4433 34.1796 18.9069 34.6432C19.3693 35.1068 19.9853 35.3617 20.6397 35.3617C21.2942 35.3617 21.9102 35.1068 22.3725 34.6432C22.8361 34.1796 23.091 33.5649 23.091 32.9091C23.091 32.2534 21.1495 25.4747 21.1495 25.4747Z" fill="#994530"/>
<path d="M36.2979 30.5975C36.1416 30.0967 35.4334 30.0967 35.2785 30.5975C35.2785 30.5975 33.3369 37.3775 33.3369 38.0319C33.3369 38.6864 33.5918 39.3024 34.0554 39.766C34.5177 40.2296 35.1337 40.4845 35.7882 40.4845C36.4426 40.4845 37.0586 40.2296 37.521 39.766C37.9846 39.3024 38.2394 38.6877 38.2394 38.0319C38.2394 37.3762 36.2979 30.5975 36.2979 30.5975Z" fill="#994530"/>
<path d="M50.6055 25.4593C50.4493 24.9586 49.741 24.9586 49.5861 25.4593C49.5861 25.4593 47.6445 32.2393 47.6445 32.8938C47.6445 33.5482 47.8994 34.1642 48.363 34.6279C48.8253 35.0915 49.4414 35.3463 50.0958 35.3463C50.7502 35.3463 51.3662 35.0915 51.8286 34.6279C52.2922 34.1642 52.5471 33.5495 52.5471 32.8938C52.5471 32.2381 50.6055 25.4593 50.6055 25.4593Z" fill="#994530"/>
<path d="M27.3321 42.1404C27.1758 41.6397 26.4676 41.6397 26.3126 42.1404C26.3126 42.1404 24.3711 48.9205 24.3711 49.5749C24.3711 50.2294 24.626 50.8454 25.0896 51.309C25.5519 51.7726 26.1679 52.0275 26.8224 52.0275C27.4768 52.0275 28.0928 51.7726 28.5551 51.309C29.0188 50.8454 29.2736 50.2306 29.2736 49.5749C29.2736 48.9192 27.3321 42.1404 27.3321 42.1404Z" fill="#994530"/>
<path d="M36.2979 53.6347C36.1416 53.134 35.4334 53.134 35.2785 53.6347C35.2785 53.6347 33.3369 60.4148 33.3369 61.0692C33.3369 61.7236 33.5918 62.3397 34.0554 62.8033C34.5177 63.2669 35.1337 63.5218 35.7882 63.5218C36.4426 63.5218 37.0586 63.2669 37.521 62.8033C37.9846 62.3397 38.2394 61.7249 38.2394 61.0692C38.2394 60.4135 36.2979 53.6347 36.2979 53.6347Z" fill="#994530"/>
<path d="M45.2627 42.1238C45.1065 41.623 44.3983 41.623 44.2433 42.1238C44.2433 42.1238 42.3018 48.9038 42.3018 49.5583C42.3018 50.2127 42.5566 50.8287 43.0202 51.2923C43.4826 51.756 44.0986 52.0108 44.753 52.0108C45.4075 52.0108 46.0235 51.756 46.4858 51.2923C46.9494 50.8287 47.2043 50.214 47.2043 49.5583C47.2043 48.9025 45.2627 42.1238 45.2627 42.1238Z" fill="#994530"/>
</g>
<defs>
<clipPath id="clip0">
<rect width="72" height="72" fill="white"/>
</clipPath>
</defs>
</svg>
