<svg width="70" height="70" viewBox="0 0 70 70" fill="none" xmlns="http://www.w3.org/2000/svg">
<g clip-path="url(#clip0)">
<path d="M9.15208 66.0684C-3.14158 60.4619 13.046 45.2468 17.6235 39.1339C23.9701 30.66 31.8094 22.8684 40.4265 16.7078C44.8432 13.5502 52.5744 6.12673 58.3079 6.02495C64.1419 5.92066 64.3379 12.5789 62.5813 15.9212C58.2124 24.2305 52.4463 31.8788 46.0017 38.664C43.5389 41.2599 13.286 70.2023 9.15208 66.0684Z" fill="#FBD490"/>
<path d="M13.1916 44.4728C14.9532 42.3719 16.5867 40.5186 17.6233 39.1339C23.9711 30.66 31.8092 22.8684 40.4264 16.7078C41.3348 16.0582 42.389 15.2238 43.5324 14.3141C44.8895 12.261 46.1598 10.1538 47.2995 7.98385C48.7168 5.28738 48.5585 -0.0841845 43.8516 1.48916e-06C39.2264 0.0829309 32.9904 6.07144 29.4269 8.61838C22.4759 13.5879 16.1519 19.8729 11.0316 26.7096C7.34128 31.6401 -5.71634 43.9137 4.20001 48.4371C5.33338 49.5705 8.9006 47.6191 13.1916 44.4728Z" fill="#EEAF4B"/>
<path d="M65.7991 21.5629C64.6658 20.4295 61.0998 22.3809 56.8076 25.5272C56.6404 25.727 56.4821 25.9117 56.3188 26.1064C53.1938 30.5507 49.7171 34.7562 46.0041 38.6652C45.8181 38.8612 45.4563 39.2231 44.9775 39.693C41.4493 43.4789 37.632 47.0172 33.6099 50.2226C31.0467 52.4906 28.3163 54.8327 25.6286 57.0165C24.592 58.65 23.5968 60.3086 22.6984 62.0161C21.2811 64.7126 21.4394 70.0842 26.1463 70C30.7715 69.9171 37.0075 63.9285 40.5697 61.3816C47.5207 56.4121 53.8447 50.1271 58.965 43.2904C62.6579 38.3599 75.7155 26.0863 65.7991 21.5629Z" fill="#EEAF4B"/>
<path d="M18.6383 56.8217C17.2725 56.8217 15.9067 56.3016 14.8663 55.2624C13.7669 54.163 11.9751 54.163 10.8756 55.2624C10.3843 55.7537 9.59023 55.7537 9.09894 55.2624C8.60765 54.7711 8.60765 53.977 9.09894 53.4857C11.1772 51.4049 14.5647 51.4049 16.643 53.4857C17.7425 54.5852 19.5342 54.5852 20.6337 53.4857C21.125 52.9944 21.9191 52.9944 22.4104 53.4857C22.9017 53.977 22.9017 54.7724 22.4104 55.2624C21.3687 56.3016 20.0042 56.8217 18.6383 56.8217Z" fill="#F1B501"/>
<path d="M26.3275 49.1319C24.9617 49.1319 23.5946 48.613 22.5555 47.5726C21.4874 46.5033 19.6328 46.5058 18.5661 47.5726C18.0748 48.0639 17.2807 48.0639 16.7894 47.5726C16.2981 47.0826 16.2981 46.2872 16.7894 45.7959C17.7971 44.7869 19.1353 44.2328 20.5614 44.2328C21.9863 44.2328 23.3245 44.7869 24.3322 45.7959C25.4316 46.8954 27.2234 46.8954 28.3228 45.7959C28.8141 45.3046 29.6083 45.3046 30.0995 45.7959C30.5908 46.2872 30.5908 47.0813 30.0995 47.5726C29.0604 48.613 27.6933 49.1319 26.3275 49.1319Z" fill="#F1B501"/>
<path d="M34.0172 41.4421C32.6514 41.4421 31.2843 40.9232 30.2452 39.8828C29.1458 38.7833 27.354 38.7833 26.2545 39.8828C25.7633 40.3741 24.9691 40.3741 24.4778 39.8828C23.9866 39.3915 23.9866 38.5974 24.4778 38.1061C26.5561 36.0253 29.9437 36.0253 32.0219 38.1061C33.1214 39.2055 34.9131 39.2055 36.0126 38.1061C36.5039 37.6148 37.298 37.6148 37.7893 38.1061C38.2806 38.5974 38.2806 39.3915 37.7893 39.8828C36.7502 40.9232 35.3831 41.4421 34.0172 41.4421Z" fill="#F1B501"/>
<path d="M41.7057 33.7523C40.3399 33.7523 38.9728 33.2334 37.9337 32.193C36.8342 31.0935 35.0425 31.0935 33.943 32.193C33.4517 32.6843 32.6576 32.6843 32.1663 32.193C31.675 31.7017 31.675 30.9076 32.1663 30.4163C34.2446 28.3355 37.6321 28.3355 39.7104 30.4163C40.8098 31.5157 42.6016 31.5157 43.7011 30.4163C44.1924 29.925 44.9865 29.925 45.4778 30.4163C45.9691 30.9076 45.9691 31.7017 45.4778 32.193C44.4386 33.2334 43.0715 33.7523 41.7057 33.7523Z" fill="#F1B501"/>
<path d="M49.3952 26.0675C47.9703 26.0675 46.6321 25.5134 45.6231 24.5044C44.5237 23.405 42.7319 23.405 41.6325 24.5044C41.1412 24.9957 40.3471 24.9957 39.8558 24.5044C39.3645 24.0131 39.3645 23.219 39.8558 22.7277C41.934 20.6469 45.3216 20.6469 47.3998 22.7277C48.4654 23.7945 50.3187 23.7957 51.3892 22.7277C51.8805 22.2364 52.6747 22.2364 53.1659 22.7277C53.6572 23.2177 53.6572 24.0131 53.1659 24.5044C52.1582 25.5134 50.8201 26.0675 49.3952 26.0675Z" fill="#F1B501"/>
<path d="M36.7313 15.4902C35.4887 15.4902 34.2447 15.0165 33.2998 14.0704C32.3863 13.1569 30.9024 13.1569 29.9889 14.0704C29.4976 14.5617 28.7035 14.5617 28.2122 14.0704C27.7209 13.5791 27.7209 12.785 28.2122 12.2937C30.1045 10.4014 33.1842 10.4014 35.0765 12.2937C35.99 13.2072 37.4739 13.2072 38.3874 12.2937C38.8787 11.8024 39.6728 11.8024 40.1641 12.2937C40.6554 12.785 40.6554 13.5791 40.1641 14.0704C39.218 15.0165 37.974 15.4902 36.7313 15.4902Z" fill="#FBD490"/>
<path d="M25.8573 24.5358C24.6146 24.5358 23.3707 24.0634 22.4258 23.1172C21.5111 22.2025 20.0271 22.205 19.1149 23.1172C18.6236 23.6085 17.8295 23.6085 17.3382 23.1172C16.8469 22.6259 16.8469 21.8318 17.3382 21.3405C19.2305 19.4482 22.3102 19.4482 24.2025 21.3405C25.116 22.2515 26.5999 22.2515 27.5134 21.3405C28.0047 20.8492 28.7988 20.8492 29.2901 21.3405C29.7814 21.8318 29.7814 22.6272 29.2901 23.1172C28.3427 24.0634 27.1 24.5358 25.8573 24.5358Z" fill="#FBD490"/>
<path d="M16.3404 35.4109C15.0977 35.4109 13.8551 34.9384 12.9089 33.9923C12.0243 33.1077 10.4864 33.1052 9.59927 33.9923C9.10798 34.4836 8.31387 34.4836 7.82257 33.9923C7.33128 33.5023 7.33128 32.7069 7.82257 32.2156C9.65707 30.3798 12.8536 30.3798 14.6856 32.2156C15.6004 33.1303 17.0843 33.1278 17.9965 32.2156C18.4878 31.7243 19.2819 31.7243 19.7732 32.2156C20.2645 32.7069 20.2645 33.501 19.7732 33.9923C18.8271 34.9384 17.5844 35.4109 16.3404 35.4109Z" fill="#FBD490"/>
<path d="M59.8251 38.5886C58.5284 38.5886 57.3096 38.0835 56.3936 37.165C55.5077 36.2791 53.9685 36.2791 53.0827 37.165C52.5914 37.6563 51.7973 37.6563 51.306 37.165C50.8147 36.6749 50.8147 35.8796 51.306 35.3883C53.138 33.5525 56.3333 33.5525 58.1703 35.3883C59.0561 36.2741 60.5953 36.2741 61.4812 35.3883C61.9725 34.897 62.7666 34.897 63.2579 35.3883C63.7492 35.8796 63.7492 36.6737 63.2579 37.165C62.3394 38.0835 61.1205 38.5886 59.8251 38.5886Z" fill="#FBD490"/>
<path d="M48.952 47.6342C47.6553 47.6342 46.4365 47.1291 45.5205 46.2105C44.607 45.2958 43.1231 45.2983 42.2096 46.2105C41.7183 46.7018 40.9242 46.7018 40.4329 46.2105C39.9416 45.7193 39.9416 44.9251 40.4329 44.4338C42.3252 42.5415 45.4024 42.5415 47.2972 44.4338C48.1831 45.3197 49.7223 45.3197 50.6081 44.4338C51.0994 43.9425 51.8935 43.9425 52.3848 44.4338C52.8761 44.9251 52.8761 45.7193 52.3848 46.2105C51.4663 47.1291 50.2475 47.6342 48.952 47.6342Z" fill="#FBD490"/>
<path d="M39.4354 58.5055C38.1928 58.5055 36.9488 58.0318 36.0039 57.0856C35.0904 56.1747 33.6065 56.1747 32.693 57.0856C32.2017 57.5769 31.4076 57.5769 30.9163 57.0856C30.425 56.5943 30.425 55.799 30.9163 55.3089C32.8086 53.4166 35.8883 53.4166 37.7806 55.3089C38.6954 56.2224 40.1793 56.2224 41.0915 55.3089C41.5828 54.8176 42.3769 54.8176 42.8682 55.3089C43.3595 55.8002 43.3595 56.5943 42.8682 57.0856C41.9221 58.0318 40.6794 58.5055 39.4354 58.5055Z" fill="#FBD490"/>
<path d="M55.6422 18.1791C54.3995 18.1791 53.2297 17.6941 52.3514 16.8146C51.5158 15.9777 50.155 15.9802 49.3219 16.8146C48.8306 17.3059 48.0365 17.3059 47.5452 16.8146C47.0539 16.3233 47.0539 15.5279 47.5452 15.0379C49.3634 13.2235 52.3149 13.226 54.1281 15.0379C54.9385 15.8483 56.3471 15.8483 57.1562 15.0379C57.6475 14.5466 58.4417 14.5466 58.933 15.0379C59.4242 15.5279 59.4242 16.3233 58.933 16.8146C58.0547 17.6941 56.8848 18.1791 55.6422 18.1791Z" fill="#F1B501"/>
</g>
<defs>
<clipPath id="clip0">
<rect width="70" height="70" fill="white"/>
</clipPath>
</defs>
</svg>
