<svg width="72" height="72" viewBox="0 0 72 72" fill="none" xmlns="http://www.w3.org/2000/svg">
<path d="M35.6448 11.0297C35.059 11.0297 34.5389 10.6135 34.4287 10.0179C33.7401 6.30745 32.0744 3.29676 30.1832 2.34687C29.5715 2.03973 29.325 1.29542 29.6321 0.684864C29.9393 0.073068 30.6823 -0.173384 31.2941 0.133752C35.2027 2.0967 36.5452 7.84932 36.8635 9.56706C36.9886 10.2395 36.5439 10.8848 35.8715 11.0111C35.7947 11.0222 35.7191 11.0297 35.6448 11.0297Z" fill="#659C35"/>
<path d="M35.5605 14.345C34.4113 14.345 33.3016 13.9351 32.4706 13.1041C31.9864 12.6199 31.9864 11.8372 32.4706 11.3529C32.9548 10.8687 33.7375 10.8687 34.2218 11.3529C34.5958 11.7269 35.1234 11.909 35.729 11.8681C36.3928 11.8211 37.043 11.5102 37.5606 10.9925C38.0449 10.5083 38.8276 10.5083 39.3118 10.9925C39.7961 11.4768 39.7961 12.2595 39.3118 12.7437C38.2505 13.8051 36.8795 14.345 35.5605 14.345Z" fill="black"/>
<path d="M36.0413 6.94525C38.813 6.91428 41.5425 8.39795 42.911 10.9876C44.0777 13.197 44.6399 15.872 45.3793 18.2387C46.4233 21.5813 47.1837 25.0192 48.2475 28.347C49.3485 31.7923 51.3623 35.0247 53.0825 38.1877C54.5748 40.9334 56.456 43.6852 57.4208 46.6687C58.6753 50.55 58.4697 54.8499 57.0839 58.6693C54.524 65.7285 48.0147 70.3813 40.7425 71.6198C39.1982 71.8823 37.6204 72.0062 36.0413 71.9975H35.9596C34.3806 72.0049 32.8028 71.8823 31.2584 71.6198C23.9875 70.3813 17.4782 65.7297 14.917 58.6693C13.5312 54.8486 13.3256 50.55 14.5802 46.6687C15.5449 43.6852 17.4249 40.9346 18.9185 38.1877C20.6387 35.0235 22.6524 31.7923 23.7534 28.347C24.8172 25.018 25.5776 21.5801 26.6217 18.2387C27.361 15.8708 27.9233 13.1957 29.0899 10.9876C30.4584 8.39795 33.1879 6.91305 35.9596 6.94525" fill="#D7CC56"/>
<path d="M29.682 65.1278C29.5879 65.1278 29.4925 65.1179 29.3972 65.0944C25.6744 64.2176 22.7033 61.8125 21.2444 58.4922C20.9695 57.8655 21.2543 57.1348 21.8798 56.8599C22.5077 56.5862 23.2371 56.8698 23.512 57.4952C24.6539 60.096 27.0057 61.9859 29.9631 62.6831C30.6294 62.8392 31.0418 63.5067 30.8846 64.1717C30.752 64.7439 30.243 65.1278 29.682 65.1278Z" fill="#E3E82A"/>
<path d="M21.3816 52.3965C21.3481 52.3965 21.3147 52.3953 21.28 52.3928C20.5989 52.3383 20.0911 51.7414 20.1456 51.059C20.2496 49.7698 20.4676 48.4619 20.7933 47.169C20.9617 46.5052 21.6355 46.1076 22.298 46.2711C22.9606 46.4383 23.3631 47.112 23.1959 47.7758C22.9036 48.935 22.7067 50.1054 22.6138 51.2584C22.5631 51.9061 22.0206 52.3965 21.3816 52.3965Z" fill="#E3E82A"/>
</svg>
