<svg width="59" height="59" viewBox="0 0 59 59" fill="none" xmlns="http://www.w3.org/2000/svg">
<path d="M11.4385 32.5102V7.12576C11.4385 5.4858 12.4367 4.0108 13.9598 3.40153C15.2217 2.89702 16.2548 1.37265 16.2548 0.0132449V0H29.4997H42.7446V0.0132449C42.7446 1.37265 43.7777 2.89702 45.0396 3.40153C46.5627 4.0108 47.5609 5.48459 47.5609 7.12576V32.5102V26.4898V51.8742C47.5609 53.5142 46.5627 54.9892 45.0396 55.5985C43.7777 56.103 42.7446 57.6286 42.7446 58.9868V59H29.4997H16.2548V58.9868C16.2548 57.6273 15.2217 56.103 13.9598 55.5985C12.4367 54.9892 11.4385 53.5154 11.4385 51.8742V26.4898" fill="#E22F37"/>
<path d="M22.2753 8.42855H16.2549C15.589 8.42855 15.0508 7.89032 15.0508 7.22447C15.0508 6.55861 15.589 6.02039 16.2549 6.02039H22.2753C22.9411 6.02039 23.4794 6.55861 23.4794 7.22447C23.4794 7.89032 22.9411 8.42855 22.2753 8.42855Z" fill="#F75B57"/>
<path d="M42.7448 8.42855H27.0918C26.4259 8.42855 25.8877 7.89032 25.8877 7.22447C25.8877 6.55861 26.4259 6.02039 27.0918 6.02039H42.7448C43.4107 6.02039 43.9489 6.55861 43.9489 7.22447C43.9489 7.89032 43.4107 8.42855 42.7448 8.42855Z" fill="#F75B57"/>
<path d="M22.2753 54.1837H16.2549C15.589 54.1837 15.0508 53.6455 15.0508 52.9796C15.0508 52.3137 15.589 51.7755 16.2549 51.7755H22.2753C22.9411 51.7755 23.4794 52.3137 23.4794 52.9796C23.4794 53.6455 22.9411 54.1837 22.2753 54.1837Z" fill="#994530"/>
<path d="M42.7448 54.1837H27.0918C26.4259 54.1837 25.8877 53.6455 25.8877 52.9796C25.8877 52.3137 26.4259 51.7755 27.0918 51.7755H42.7448C43.4107 51.7755 43.9489 52.3137 43.9489 52.9796C43.9489 53.6455 43.4107 54.1837 42.7448 54.1837Z" fill="#994530"/>
<path d="M47.5609 38.5306L11.4385 50.5714V24.0816L47.5609 12.0408V38.5306Z" fill="#E6E6E6"/>
<path d="M47.5609 33.7143L11.4385 45.7551V28.8979L47.5609 16.8571V33.7143Z" fill="#F9D70B"/>
</svg>
