<svg width="80" height="80" viewBox="0 0 80 80" fill="none" xmlns="http://www.w3.org/2000/svg">
<path d="M39.2855 60C37.1798 60 35.3384 58.5829 34.7998 56.5471L26.9298 26.81C26.2955 23.26 29.0255 20 32.6312 20H45.9384C49.5441 20 52.2741 23.26 51.6398 26.81L43.7712 56.5471C43.2326 58.5829 41.3912 60 39.2855 60Z" fill="#EEAF4B"/>
<path d="M66.2531 28.0114C61.516 24.57 55.0188 22.6343 51.1003 23.1786C51.6474 24.2543 51.8731 25.5114 51.6417 26.81L43.7717 56.5471C43.6488 57.0129 43.4503 57.44 43.2031 57.8314C43.8517 58.2228 44.5974 58.4914 45.4131 58.5543C52.2188 60.7486 62.8788 47.0043 68.3374 39.1014C71.136 35.0471 70.2388 30.9057 66.2531 28.0114Z" fill="#F4C44E"/>
<path d="M34.7998 56.5471L26.9298 26.81C26.6955 25.4986 26.9255 24.23 27.4841 23.1472C23.5484 22.6914 17.1798 24.6257 12.5198 28.01C8.5341 30.9043 7.63696 35.0472 10.4355 39.1014C15.8927 47.0057 26.5541 60.7486 33.3598 58.5543C34.1127 58.4957 34.8055 58.2629 35.4198 57.9214C35.1455 57.5086 34.9327 57.0471 34.7998 56.5471Z" fill="#F4C44E"/>
<path d="M10.4369 39.1014C9.89836 38.3214 9.49979 37.5386 9.22979 36.7614C5.38836 40.6143 2.37121 45.1729 0.488357 50.2243C-1.53879 55.66 3.07264 61.27 8.28407 59.7443L24.1398 55.1057C19.0055 50.88 13.7584 43.9114 10.4369 39.1014Z" fill="#F1B501"/>
<path d="M79.5108 50.2257C77.4708 44.7543 74.1108 39.8529 69.8008 35.8114C69.5736 36.8971 69.0951 38.0029 68.3365 39.1029C65.0851 43.8129 59.9851 50.5943 54.9551 54.8429L71.7165 59.7471C76.9265 61.27 81.5379 55.6614 79.5108 50.2257Z" fill="#F1B501"/>
<path d="M32.6309 20C32.5709 20 32.5166 20.0171 32.458 20.02L34.7994 28.87C35.338 30.9057 37.1794 32.3229 39.2852 32.3229C41.3909 32.3229 43.2323 30.9057 43.7709 28.87L46.1123 20.02C46.0523 20.0171 45.9994 20 45.9394 20H32.6309Z" fill="#F4C44E"/>
</svg>
