<svg width="47" height="70" viewBox="0 0 47 70" fill="none" xmlns="http://www.w3.org/2000/svg">
<path d="M32.9083 69.3H13.3489C0.0573065 69.3 0.708307 3.31797 0.708307 3.31797C0.708307 -0.172233 45.5489 -0.172233 45.5489 3.31797C45.5489 3.31797 46.2573 69.3 32.9083 69.3Z" fill="#DAE7EF"/>
<path d="M32.9075 70H13.3481C11.9803 70 10.6993 69.4064 9.54149 68.236C-0.41811 58.1798 -0.0149114 5.5468 0.00748862 3.311C0.00748862 0.4326 14.4933 0 23.1271 0C31.7609 0 46.2481 0.4326 46.2481 3.318C46.2719 5.544 46.7213 58.1336 36.7393 68.2234C35.5745 69.4022 34.2851 70 32.9075 70ZM23.1271 1.4C9.17189 1.4 2.00389 2.5984 1.37249 3.4496C1.40189 3.8668 0.984688 57.6058 10.5355 67.2518C11.4343 68.159 12.3555 68.6 13.3481 68.6H32.9075C33.9113 68.6 34.8381 68.1548 35.7439 67.2392C45.3185 57.561 44.8537 3.8654 44.8481 3.325C44.2503 2.5984 37.0837 1.4 23.1271 1.4Z" fill="#BBD7EA"/>
<path d="M44.6948 26.285C44.6514 26.3284 44.608 26.3718 44.5646 26.4152C40.737 30.1854 38.1694 30.1672 34.3852 26.3816C30.4848 30.282 27.2774 30.3114 23.4498 26.4838C19.5494 30.3842 16.342 30.4136 12.5144 26.586C8.61402 30.4864 5.40662 30.1126 1.57902 26.285L1.32422 26.4376C2.40642 45.458 5.35762 69.3 13.3474 69.3H32.9068C40.9162 69.3 43.8632 45.5532 44.9412 26.5524L44.6948 26.285Z" fill="#FFBF1A"/>
<path d="M27.6842 38.885C28.4574 38.885 29.0842 38.2582 29.0842 37.485C29.0842 36.7118 28.4574 36.085 27.6842 36.085C26.911 36.085 26.2842 36.7118 26.2842 37.485C26.2842 38.2582 26.911 38.885 27.6842 38.885Z" fill="white"/>
<path d="M30.484 45.885C31.2572 45.885 31.884 45.2582 31.884 44.485C31.884 43.7118 31.2572 43.085 30.484 43.085C29.7108 43.085 29.084 43.7118 29.084 44.485C29.084 45.2582 29.7108 45.885 30.484 45.885Z" fill="white"/>
<path d="M34.6842 52.885C35.4574 52.885 36.0842 52.2582 36.0842 51.485C36.0842 50.7118 35.4574 50.085 34.6842 50.085C33.911 50.085 33.2842 50.7118 33.2842 51.485C33.2842 52.2582 33.911 52.885 34.6842 52.885Z" fill="white"/>
<path d="M23.484 48.685C24.2572 48.685 24.884 48.0582 24.884 47.285C24.884 46.5118 24.2572 45.885 23.484 45.885C22.7108 45.885 22.084 46.5118 22.084 47.285C22.084 48.0582 22.7108 48.685 23.484 48.685Z" fill="white"/>
<path d="M33.2848 37.4851C34.058 37.4851 34.6848 36.8583 34.6848 36.0851C34.6848 35.3119 34.058 34.6851 33.2848 34.6851C32.5116 34.6851 31.8848 35.3119 31.8848 36.0851C31.8848 36.8583 32.5116 37.4851 33.2848 37.4851Z" fill="white"/>
<path d="M18.3995 43.7962L15.3307 46.6634C14.2051 47.7148 12.4243 47.6546 11.3729 46.529L8.50569 43.4602C7.45429 42.3346 7.51449 40.5538 8.64009 39.5024L11.7089 36.6352C12.8345 35.5838 14.6153 35.644 15.6667 36.7696L18.5339 39.8384C19.5853 40.964 19.5237 42.7448 18.3995 43.7962Z" fill="#8AB6CE"/>
<path d="M30.9991 62.3252L27.9303 65.1924C26.8047 66.2438 25.0239 66.1836 23.9725 65.058L21.1053 61.9892C20.0539 60.8636 20.1141 59.0828 21.2397 58.0314L24.3085 55.1642C25.4341 54.1128 27.2149 54.173 28.2663 55.2986L31.1335 58.3674C32.1849 59.493 32.1233 61.2738 30.9991 62.3252Z" fill="#8AB6CE"/>
<path d="M12.2838 57.2138C13.057 57.2138 13.6838 56.587 13.6838 55.8138C13.6838 55.0406 13.057 54.4138 12.2838 54.4138C11.5106 54.4138 10.8838 55.0406 10.8838 55.8138C10.8838 56.587 11.5106 57.2138 12.2838 57.2138Z" fill="white"/>
<path d="M15.0846 65.6137C15.8578 65.6137 16.4846 64.9869 16.4846 64.2137C16.4846 63.4405 15.8578 62.8137 15.0846 62.8137C14.3114 62.8137 13.6846 63.4405 13.6846 64.2137C13.6846 64.9869 14.3114 65.6137 15.0846 65.6137Z" fill="white"/>
</svg>
