<svg width="64" height="64" viewBox="0 0 64 64" fill="none" xmlns="http://www.w3.org/2000/svg">
<path d="M6.85714 62.8571C10.6442 62.8571 13.7143 59.7871 13.7143 56C13.7143 52.2129 10.6442 49.1429 6.85714 49.1429C3.07005 49.1429 0 52.2129 0 56C0 59.7871 3.07005 62.8571 6.85714 62.8571Z" fill="#9777A8"/>
<path d="M11.4284 38.8571C15.2155 38.8571 18.2856 35.7871 18.2856 32C18.2856 28.2129 15.2155 25.1429 11.4284 25.1429C7.64134 25.1429 4.57129 28.2129 4.57129 32C4.57129 35.7871 7.64134 38.8571 11.4284 38.8571Z" fill="#583E68"/>
<path d="M18.2858 46.8571C15.3395 46.8571 12.8355 48.7177 11.8652 51.3257C13.0092 52.5509 13.7144 54.1909 13.7144 56C13.7144 56.8411 13.5555 57.6434 13.2778 58.3886C14.5304 59.728 16.3075 60.5714 18.2858 60.5714C22.0732 60.5714 25.1429 57.5017 25.1429 53.7143C25.1429 49.9269 22.0732 46.8571 18.2858 46.8571Z" fill="#583E68"/>
<path d="M11.8656 51.3257C12.5444 49.5017 13.9833 48.0594 15.7901 47.3474C15.9181 46.8229 16.0004 46.2789 16.0004 45.7143C16.0004 41.9269 12.9307 38.8571 9.14328 38.8571C5.35585 38.8571 2.28613 41.9269 2.28613 45.7143C2.28613 47.2949 2.82556 48.7463 3.72385 49.9051C4.66442 49.4206 5.72728 49.1429 6.85756 49.1429C9.06328 49.1429 11.021 50.1886 12.2747 51.8069C12.1456 51.6411 12.0084 51.48 11.8656 51.3257Z" fill="#6F58A8"/>
<path d="M29.7147 43.4286C26.4484 43.4286 23.7215 45.7143 23.0312 48.7714C24.3307 50.0183 25.1432 51.7703 25.1432 53.7143C25.1432 54.2354 25.0804 54.7406 24.9695 55.2286C26.2015 56.4114 27.8712 57.1429 29.7147 57.1429C33.5021 57.1429 36.5718 54.0731 36.5718 50.2857C36.5718 46.4983 33.5021 43.4286 29.7147 43.4286Z" fill="#6F58A8"/>
<path d="M26.7095 44.1463C27.1564 43.2366 27.4284 42.2251 27.4284 41.1428C27.4284 37.3554 24.3587 34.2857 20.5713 34.2857C19.5061 34.2857 18.5015 34.5337 17.6033 34.968C16.929 36.368 15.7964 37.5006 14.3964 38.1748C14.0341 38.9291 13.8044 39.76 13.7393 40.6377C15.1244 41.8914 15.9998 43.6983 15.9998 45.7143C15.9998 45.8834 15.9793 46.0469 15.9655 46.2126C16.2867 46.504 16.6375 46.7611 17.009 46.9886C17.4238 46.9097 17.8478 46.8571 18.2855 46.8571C19.5998 46.8571 20.8227 47.2331 21.8661 47.8743C22.4753 47.7577 23.0433 47.5394 23.5838 47.2731C24.2524 45.9131 25.3495 44.8137 26.7095 44.1463Z" fill="#9777A8"/>
<path d="M31.9995 32C31.115 32 30.2784 32.1851 29.5035 32.4903C29.0258 34.4343 27.731 36.0549 25.9904 36.952C25.9904 36.9509 25.9893 36.9509 25.9893 36.9509C26.8887 38.1086 27.4281 39.5611 27.4281 41.1429C27.4281 41.9817 27.2613 42.7771 26.979 43.5166C27.091 43.6366 27.211 43.7474 27.331 43.8594C28.0738 43.584 28.875 43.4286 29.7138 43.4286C31.523 43.4286 33.163 44.1337 34.3881 45.2777C36.9961 44.3074 38.8567 41.8034 38.8567 38.8571C38.8567 35.0697 35.787 32 31.9995 32Z" fill="#583E68"/>
<path d="M41.1431 38.8571C40.3282 38.8571 39.55 39.0057 38.8254 39.2674C38.6597 42.032 36.8734 44.3543 34.3888 45.2789C34.374 45.264 34.3568 45.2526 34.3408 45.2377C35.7077 46.4914 36.5717 48.2846 36.5717 50.2857C36.5717 50.456 36.558 50.624 36.5465 50.792C37.7625 51.8937 39.3717 52.5714 41.1431 52.5714C44.9305 52.5714 48.0002 49.5017 48.0002 45.7143C48.0002 41.9269 44.9305 38.8571 41.1431 38.8571Z" fill="#9777A8"/>
<path d="M43.4287 27.4286C42.9967 27.4286 42.575 27.4731 42.1647 27.5497C41.647 30.3223 39.4653 32.504 36.6927 33.0217C36.6458 33.2697 36.6173 33.5234 36.5967 33.7794C37.9818 35.0343 38.8573 36.8411 38.8573 38.8571C38.8573 39.0229 38.831 39.1817 38.8184 39.3451C38.847 39.3109 40.335 38.8571 41.143 38.8571C42.9521 38.8571 44.5921 39.5623 45.8173 40.7063C48.4253 39.736 50.2858 37.232 50.2858 34.2857C50.2858 30.4983 47.2161 27.4286 43.4287 27.4286Z" fill="#583E68"/>
<path d="M28.5718 12.5714C25.7581 12.5714 23.3433 14.2674 22.2861 16.6914C22.6518 17.5303 22.8576 18.4549 22.8576 19.4286C22.8576 20.4023 22.6518 21.3269 22.2861 22.1657C22.5878 22.8583 23.0118 23.4823 23.5136 24.0331C25.253 24.1989 26.7981 25.0171 27.9136 26.2366C28.1318 26.2571 28.3478 26.2857 28.5718 26.2857C28.5718 22.4983 31.6416 19.4286 35.429 19.4286C35.429 15.6411 32.3593 12.5714 28.5718 12.5714Z" fill="#9777A8"/>
<path d="M15.9997 12.5714C12.2123 12.5714 9.14258 15.6411 9.14258 19.4286C9.14258 21.8594 10.4111 23.9897 12.3186 25.2069C13.3369 25.3394 14.2831 25.6937 15.1106 26.2217C15.402 26.2594 15.698 26.2857 15.9997 26.2857C19.7871 26.2857 22.8569 23.216 22.8569 19.4286C22.8569 15.6411 19.7871 12.5714 15.9997 12.5714Z" fill="#6F58A8"/>
<path d="M28.6357 27.1771C28.6322 27.1726 28.6299 27.1669 28.6277 27.1623C27.4082 25.2617 25.2825 24 22.8574 24C22.1374 24 21.4471 24.12 20.7957 24.3257C20.0402 25.0663 19.1145 25.6331 18.0814 25.9623C17.5602 26.472 17.1099 27.0537 16.7705 27.7063C17.7168 28.8823 18.2859 30.3737 18.2859 32C18.2859 33.0823 18.0242 34.1006 17.5774 35.0114C17.5854 34.9966 17.5957 34.9829 17.6025 34.968C18.5019 34.5337 19.5065 34.2857 20.5717 34.2857C22.7785 34.2857 24.7362 35.3326 25.9911 36.952C28.2002 35.8137 29.7145 33.5143 29.7145 30.8571C29.7145 30.5531 29.6871 30.2571 29.6482 29.9646C29.1214 29.1383 28.7682 28.1931 28.6357 27.1771Z" fill="#6F58A8"/>
<path d="M35.4284 19.4286C31.641 19.4286 28.5713 22.4983 28.5713 26.2857C28.5713 28.6834 29.8044 30.7909 31.6696 32.0171C31.7793 32.0114 31.8879 32 31.9999 32C33.3896 32 34.6799 32.416 35.7599 33.1257C39.3919 32.952 42.2856 29.9611 42.2856 26.2857C42.2856 22.4983 39.2159 19.4286 35.4284 19.4286Z" fill="#6F58A8"/>
<path d="M64.0004 29.7143C56.4198 29.7143 50.2861 23.5806 50.2861 16C57.8667 16 64.0004 22.1337 64.0004 29.7143Z" fill="#88C057"/>
<path d="M38.8574 21.7143V19.4286C47.0494 19.4286 53.7146 11.2251 53.7146 1.14285H56.0003C56.0003 12.4857 48.31 21.7143 38.8574 21.7143Z" fill="#7A3726"/>
</svg>
